  0
SECTION
  2
HEADER
  9
$ACADVER
  1
AC1032
  9
$ACADMAINTVER
 90
      250
  9
$DWGCODEPAGE
  3
ANSI_1252
  9
$LASTSAVEDBY
  1
hali
  9
$REQUIREDVERSIONS
160
                 0
  9
$INSBASE
 10
0.0
 20
0.0
 30
0.0
  9
$EXTMIN
 10
-0.4999999999999991
 20
-304.2750000000001
 30
0.0
  9
$EXTMAX
 10
348.1624999999998
 20
4.700000000000001
 30
0.0
  9
$LIMMIN
 10
0.0
 20
0.0
  9
$LIMMAX
 10
12.0
 20
9.0
  9
$ORTHOMODE
 70
     0
  9
$REGENMODE
 70
     1
  9
$FILLMODE
 70
     1
  9
$QTEXTMODE
 70
     0
  9
$MIRRTEXT
 70
     0
  9
$LTSCALE
 40
1.0
  9
$ATTMODE
 70
     1
  9
$TEXTSIZE
 40
0.2
  9
$TRACEWID
 40
0.05
  9
$TEXTSTYLE
  7
Standard
  9
$CLAYER
  8
0
  9
$CELTYPE
  6
CONTINUOUS
  9
$CECOLOR
 62
   256
  9
$CELTSCALE
 40
1.0
  9
$DISPSILH
 70
     0
  9
$DIMSCALE
 40
1.0
  9
$DIMASZ
 40
0.18
  9
$DIMEXO
 40
0.0625
  9
$DIMDLI
 40
0.38
  9
$DIMRND
 40
0.0
  9
$DIMDLE
 40
0.0
  9
$DIMEXE
 40
0.18
  9
$DIMTP
 40
0.0
  9
$DIMTM
 40
0.0
  9
$DIMTXT
 40
0.18
  9
$DIMCEN
 40
0.09
  9
$DIMTSZ
 40
0.0
  9
$DIMTOL
 70
     0
  9
$DIMLIM
 70
     0
  9
$DIMTIH
 70
     1
  9
$DIMTOH
 70
     1
  9
$DIMSE1
 70
     0
  9
$DIMSE2
 70
     0
  9
$DIMTAD
 70
     0
  9
$DIMZIN
 70
     0
  9
$DIMBLK
  1

  9
$DIMASO
 70
     1
  9
$DIMSHO
 70
     1
  9
$DIMPOST
  1

  9
$DIMAPOST
  1

  9
$DIMALT
 70
     0
  9
$DIMALTD
 70
     2
  9
$DIMALTF
 40
25.4
  9
$DIMLFAC
 40
1.0
  9
$DIMTOFL
 70
     0
  9
$DIMTVP
 40
0.0
  9
$DIMTIX
 70
     0
  9
$DIMSOXD
 70
     0
  9
$DIMSAH
 70
     0
  9
$DIMBLK1
  1

  9
$DIMBLK2
  1

  9
$DIMSTYLE
  2
Standard
  9
$DIMCLRD
 70
     0
  9
$DIMCLRE
 70
     0
  9
$DIMCLRT
 70
     0
  9
$DIMTFAC
 40
1.0
  9
$DIMGAP
 40
0.09
  9
$DIMJUST
 70
     0
  9
$DIMSD1
 70
     0
  9
$DIMSD2
 70
     0
  9
$DIMTOLJ
 70
     1
  9
$DIMTZIN
 70
     0
  9
$DIMALTZ
 70
     0
  9
$DIMALTTZ
 70
     0
  9
$DIMUPT
 70
     0
  9
$DIMDEC
 70
     4
  9
$DIMTDEC
 70
     4
  9
$DIMALTU
 70
     2
  9
$DIMALTTD
 70
     2
  9
$DIMTXSTY
  7
Standard
  9
$DIMAUNIT
 70
     0
  9
$DIMADEC
 70
     0
  9
$DIMALTRND
 40
0.0
  9
$DIMAZIN
 70
     0
  9
$DIMDSEP
 70
    46
  9
$DIMATFIT
 70
     3
  9
$DIMFRAC
 70
     0
  9
$DIMLDRBLK
  1

  9
$DIMLUNIT
 70
     2
  9
$DIMLWD
 70
    -2
  9
$DIMLWE
 70
    -2
  9
$DIMTMOVE
 70
     0
  9
$DIMFXL
 40
1.0
  9
$DIMFXLON
 70
     0
  9
$DIMJOGANG
 40
0.7853981633974483
  9
$DIMTFILL
 70
     0
  9
$DIMTFILLCLR
 70
     0
  9
$DIMARCSYM
 70
     0
  9
$DIMLTYPE
  6

  9
$DIMLTEX1
  6

  9
$DIMLTEX2
  6

  9
$DIMTXTDIRECTION
 70
     0
  9
$LUNITS
 70
     2
  9
$LUPREC
 70
     4
  9
$SKETCHINC
 40
0.1
  9
$FILLETRAD
 40
0.5
  9
$AUNITS
 70
     0
  9
$AUPREC
 70
     0
  9
$MENU
  1
.
  9
$ELEVATION
 40
0.0
  9
$PELEVATION
 40
0.0
  9
$THICKNESS
 40
0.0
  9
$LIMCHECK
 70
     0
  9
$CHAMFERA
 40
0.0
  9
$CHAMFERB
 40
0.0
  9
$CHAMFERC
 40
0.0
  9
$CHAMFERD
 40
0.0
  9
$SKPOLY
 70
     0
  9
$TDCREATE
 40
2460442.843611111
  9
$TDUCREATE
 40
2460443.010277778
  9
$TDUPDATE
 40
2460444.973009260
  9
$TDUUPDATE
 40
2460445.139675926
  9
$TDINDWG
 40
0.1281365741
  9
$TDUSRTIMER
 40
0.1281365741
  9
$USRTIMER
 70
     1
  9
$ANGBASE
 50
0.0
  9
$ANGDIR
 70
     0
  9
$PDMODE
 70
     0
  9
$PDSIZE
 40
0.0
  9
$PLINEWID
 40
0.0
  9
$SPLFRAME
 70
     0
  9
$SPLINETYPE
 70
     6
  9
$SPLINESEGS
 70
     8
  9
$HANDSEED
  5
8BC
  9
$SURFTAB1
 70
     6
  9
$SURFTAB2
 70
     6
  9
$SURFTYPE
 70
     6
  9
$SURFU
 70
     6
  9
$SURFV
 70
     6
  9
$UCSBASE
  2

  9
$UCSNAME
  2

  9
$UCSORG
 10
0.0
 20
0.0
 30
0.0
  9
$UCSXDIR
 10
1.0
 20
0.0
 30
0.0
  9
$UCSYDIR
 10
0.0
 20
1.0
 30
0.0
  9
$UCSORTHOREF
  2

  9
$UCSORTHOVIEW
 70
     0
  9
$UCSORGTOP
 10
0.0
 20
0.0
 30
0.0
  9
$UCSORGBOTTOM
 10
0.0
 20
0.0
 30
0.0
  9
$UCSORGLEFT
 10
0.0
 20
0.0
 30
0.0
  9
$UCSORGRIGHT
 10
0.0
 20
0.0
 30
0.0
  9
$UCSORGFRONT
 10
0.0
 20
0.0
 30
0.0
  9
$UCSORGBACK
 10
0.0
 20
0.0
 30
0.0
  9
$PUCSBASE
  2

  9
$PUCSNAME
  2

  9
$PUCSORG
 10
0.0
 20
0.0
 30
0.0
  9
$PUCSXDIR
 10
1.0
 20
0.0
 30
0.0
  9
$PUCSYDIR
 10
0.0
 20
1.0
 30
0.0
  9
$PUCSORTHOREF
  2

  9
$PUCSORTHOVIEW
 70
     0
  9
$PUCSORGTOP
 10
0.0
 20
0.0
 30
0.0
  9
$PUCSORGBOTTOM
 10
0.0
 20
0.0
 30
0.0
  9
$PUCSORGLEFT
 10
0.0
 20
0.0
 30
0.0
  9
$PUCSORGRIGHT
 10
0.0
 20
0.0
 30
0.0
  9
$PUCSORGFRONT
 10
0.0
 20
0.0
 30
0.0
  9
$PUCSORGBACK
 10
0.0
 20
0.0
 30
0.0
  9
$USERI1
 70
     0
  9
$USERI2
 70
     0
  9
$USERI3
 70
     0
  9
$USERI4
 70
     0
  9
$USERI5
 70
     0
  9
$USERR1
 40
0.0
  9
$USERR2
 40
0.0
  9
$USERR3
 40
0.0
  9
$USERR4
 40
0.0
  9
$USERR5
 40
0.0
  9
$WORLDVIEW
 70
     1
  9
$SHADEDGE
 70
     3
  9
$SHADEDIF
 70
    70
  9
$TILEMODE
 70
     1
  9
$MAXACTVP
 70
    64
  9
$PINSBASE
 10
0.0
 20
0.0
 30
0.0
  9
$PLIMCHECK
 70
     0
  9
$PEXTMIN
 10
1.000000000000000E+20
 20
1.000000000000000E+20
 30
1.000000000000000E+20
  9
$PEXTMAX
 10
-1.000000000000000E+20
 20
-1.000000000000000E+20
 30
-1.000000000000000E+20
  9
$PLIMMIN
 10
0.0
 20
0.0
  9
$PLIMMAX
 10
12.0
 20
9.0
  9
$UNITMODE
 70
     0
  9
$VISRETAIN
 70
     1
  9
$PLINEGEN
 70
     0
  9
$PSLTSCALE
 70
     1
  9
$TREEDEPTH
 70
  3020
  9
$CMLSTYLE
  2
Standard
  9
$CMLJUST
 70
     0
  9
$CMLSCALE
 40
1.0
  9
$PROXYGRAPHICS
 70
     1
  9
$MEASUREMENT
 70
     0
  9
$CELWEIGHT
370
    -1
  9
$ENDCAPS
280
     0
  9
$JOINSTYLE
280
     0
  9
$LWDISPLAY
290
     0
  9
$INSUNITS
 70
     4
  9
$HYPERLINKBASE
  1

  9
$STYLESHEET
  1

  9
$XEDIT
290
     1
  9
$CEPSNTYPE
380
     0
  9
$PSTYLEMODE
290
     1
  9
$FINGERPRINTGUID
  2
{26E1C6C1-57DD-6043-B6ED-203D7BF3E202}
  9
$VERSIONGUID
  2
{E8B8A990-69D6-3D4B-A4B1-C4B8BF1B5E41}
  9
$EXTNAMES
290
     1
  9
$PSVPSCALE
 40
0.0
  9
$OLESTARTUP
290
     0
  9
$SORTENTS
280
   127
  9
$INDEXCTL
280
     0
  9
$HIDETEXT
280
     0
  9
$XCLIPFRAME
280
     2
  9
$HALOGAP
280
     0
  9
$OBSCOLOR
 70
   257
  9
$OBSLTYPE
280
     0
  9
$INTERSECTIONDISPLAY
280
     0
  9
$INTERSECTIONCOLOR
 70
   257
  9
$DIMASSOC
280
     1
  9
$PROJECTNAME
  1

  9
$CAMERADISPLAY
290
     0
  9
$LENSLENGTH
 40
50.0
  9
$CAMERAHEIGHT
 40
0.0
  9
$STEPSPERSEC
 40
2.0
  9
$STEPSIZE
 40
6.0
  9
$3DDWFPREC
 40
2.0
  9
$PSOLWIDTH
 40
0.25
  9
$PSOLHEIGHT
 40
4.0
  9
$LOFTANG1
 40
1.570796326794896
  9
$LOFTANG2
 40
1.570796326794896
  9
$LOFTMAG1
 40
0.0
  9
$LOFTMAG2
 40
0.0
  9
$LOFTPARAM
 70
     7
  9
$LOFTNORMALS
280
     1
  9
$LATITUDE
 40
37.795
  9
$LONGITUDE
 40
-122.394
  9
$NORTHDIRECTION
 40
0.0
  9
$TIMEZONE
 70
 -8000
  9
$LIGHTGLYPHDISPLAY
280
     1
  9
$TILEMODELIGHTSYNCH
280
     1
  9
$CMATERIAL
347
11
  9
$SOLIDHIST
280
     0
  9
$SHOWHIST
280
     1
  9
$DWFFRAME
280
     2
  9
$DGNFRAME
280
     0
  9
$REALWORLDSCALE
290
     1
  9
$INTERFERECOLOR
 62
     1
  9
$INTERFEREOBJVS
345
33
  9
$INTERFEREVPVS
346
30
  9
$CSHADOW
280
     0
  9
$SHADOWPLANELOCATION
 40
0.0
  0
ENDSEC
  0
SECTION
  2
CLASSES
  0
CLASS
  1
ACDBDICTIONARYWDFLT
  2
AcDbDictionaryWithDefault
  3
ObjectDBX Classes
 90
        0
 91
        1
280
     0
281
     0
  0
CLASS
  1
MATERIAL
  2
AcDbMaterial
  3
ObjectDBX Classes
 90
     1153
 91
        3
280
     0
281
     0
  0
CLASS
  1
VISUALSTYLE
  2
AcDbVisualStyle
  3
ObjectDBX Classes
 90
     4095
 91
       24
280
     0
281
     0
  0
CLASS
  1
SCALE
  2
AcDbScale
  3
ObjectDBX Classes
 90
     1153
 91
       17
280
     0
281
     0
  0
CLASS
  1
TABLESTYLE
  2
AcDbTableStyle
  3
ObjectDBX Classes
 90
     4095
 91
        1
280
     0
281
     0
  0
CLASS
  1
MLEADERSTYLE
  2
AcDbMLeaderStyle
  3
ACDB_MLEADERSTYLE_CLASS
 90
     4095
 91
        1
280
     0
281
     0
  0
CLASS
  1
ACDBSECTIONVIEWSTYLE
  2
AcDbSectionViewStyle
  3
ObjectDBX Classes
 90
     1025
 91
        1
280
     0
281
     0
  0
CLASS
  1
ACDBDETAILVIEWSTYLE
  2
AcDbDetailViewStyle
  3
ObjectDBX Classes
 90
     1025
 91
        1
280
     0
281
     0
  0
CLASS
  1
SORTENTSTABLE
  2
AcDbSortentsTable
  3
ObjectDBX Classes
 90
        0
 91
        8
280
     0
281
     0
  0
CLASS
  1
DICTIONARYVAR
  2
AcDbDictionaryVar
  3
ObjectDBX Classes
 90
        0
 91
        9
280
     0
281
     0
  0
CLASS
  1
CELLSTYLEMAP
  2
AcDbCellStyleMap
  3
ObjectDBX Classes
 90
     1152
 91
        2
280
     0
281
     0
  0
ENDSEC
  0
SECTION
  2
TABLES
  0
TABLE
  2
VPORT
  5
8
330
0
100
AcDbSymbolTable
 70
     1
  0
VPORT
  5
74
330
8
100
AcDbSymbolTableRecord
100
AcDbViewportTableRecord
  2
*Active
 70
     0
 10
0.0
 20
0.0
 11
1.0
 21
1.0
 12
183.575273586226
 22
-72.94452821797882
 13
0.0
 23
0.0
 14
1.0
 24
1.0
 15
0.0
 25
0.0
 16
0.0
 26
0.0
 36
1.0
 17
0.0
 27
0.0
 37
0.0
 40
234.269932486658
 41
2.351715686274509
 42
50.0
 43
0.0
 44
0.0
 50
0.0
 51
0.0
 71
     0
 72
   100
 73
     1
 74
     2
 75
     0
 76
     0
 77
     0
 78
     0
281
     0
 65
     1
110
0.0
120
0.0
130
0.0
111
1.0
121
0.0
131
0.0
112
0.0
122
1.0
132
0.0
 79
     0
146
0.0
348
2F
 60
     3
 61
     5
292
     1
282
     1
141
0.0
142
0.0
 63
   250
421
  3355443
1001
ACAD_NAV_VCDISPLAY
1070
     3
  0
ENDTAB
  0
TABLE
  2
LTYPE
  5
5
330
0
100
AcDbSymbolTable
 70
     1
  0
LTYPE
  5
5A
330
5
100
AcDbSymbolTableRecord
100
AcDbLinetypeTableRecord
  2
ByBlock
 70
     0
  3

 72
    65
 73
     0
 40
0.0
  0
LTYPE
  5
5B
330
5
100
AcDbSymbolTableRecord
100
AcDbLinetypeTableRecord
  2
ByLayer
 70
     0
  3

 72
    65
 73
     0
 40
0.0
  0
LTYPE
  5
5C
330
5
100
AcDbSymbolTableRecord
100
AcDbLinetypeTableRecord
  2
CONTINUOUS
 70
     0
  3
______
 72
    65
 73
     0
 40
0.0
  0
ENDTAB
  0
TABLE
  2
LAYER
  5
2
102
{ACAD_XDICTIONARY
360
6C6
102
}
330
0
100
AcDbSymbolTable
 70
     1
  0
LAYER
  5
54
102
{ACAD_XDICTIONARY
360
4F8
102
}
330
2
100
AcDbSymbolTableRecord
100
AcDbLayerTableRecord
  2
0
 70
     0
 62
     7
  6
CONTINUOUS
370
    -3
390
F
347
21
348
0
  0
ENDTAB
  0
TABLE
  2
STYLE
  5
3
330
0
100
AcDbSymbolTable
 70
     2
  0
STYLE
  5
55
330
3
100
AcDbSymbolTableRecord
100
AcDbTextStyleTableRecord
  2
Standard
 70
     0
 40
0.0
 41
1.0
 50
0.0
 71
     0
 42
0.2
  3
txt
  4

  0
STYLE
  5
59
330
3
100
AcDbSymbolTableRecord
100
AcDbTextStyleTableRecord
  2
Annotative
 70
     0
 40
0.0
 41
1.0
 50
0.0
 71
     0
 42
0.2
  3
txt
  4

1001
AcadAnnotative
1000
AnnotativeData
1002
{
1070
     1
1070
     1
1002
}
  0
ENDTAB
  0
TABLE
  2
VIEW
  5
6
330
0
100
AcDbSymbolTable
 70
     0
  0
ENDTAB
  0
TABLE
  2
UCS
  5
7
330
0
100
AcDbSymbolTable
 70
     0
  0
ENDTAB
  0
TABLE
  2
APPID
  5
9
330
0
100
AcDbSymbolTable
 70
     3
  0
APPID
  5
56
330
9
100
AcDbSymbolTableRecord
100
AcDbRegAppTableRecord
  2
ACAD
 70
     0
  0
APPID
  5
5D
330
9
100
AcDbSymbolTableRecord
100
AcDbRegAppTableRecord
  2
AcadAnnotative
 70
     0
  0
APPID
  5
471
330
9
100
AcDbSymbolTableRecord
100
AcDbRegAppTableRecord
  2
ACAD_NAV_VCDISPLAY
 70
     0
  0
ENDTAB
  0
TABLE
  2
DIMSTYLE
  5
A
330
0
100
AcDbSymbolTable
 70
     2
100
AcDbDimStyleTable
 71
     0
  0
DIMSTYLE
105
57
330
A
100
AcDbSymbolTableRecord
100
AcDbDimStyleTableRecord
  2
Standard
 70
     0
340
55
  0
DIMSTYLE
105
58
330
A
100
AcDbSymbolTableRecord
100
AcDbDimStyleTableRecord
  2
Annotative
 70
     0
340
55
1001
AcadAnnotative
1000
AnnotativeData
1002
{
1070
     1
1070
     1
1002
}
  0
ENDTAB
  0
TABLE
  2
BLOCK_RECORD
  5
1
330
0
100
AcDbSymbolTable
 70
     7
  0
BLOCK_RECORD
  5
6F
102
{ACAD_XDICTIONARY
360
439
102
}
330
1
100
AcDbSymbolTableRecord
100
AcDbBlockTableRecord
  2
*Model_Space
340
72
 70
     0
280
     1
281
     0
  0
BLOCK_RECORD
  5
6B
330
1
100
AcDbSymbolTableRecord
100
AcDbBlockTableRecord
  2
*Paper_Space
340
6E
 70
     0
280
     1
281
     0
  0
BLOCK_RECORD
  5
52D
102
{ACAD_XDICTIONARY
360
53D
102
}
330
1
100
AcDbSymbolTableRecord
100
AcDbBlockTableRecord
  2
A$Cf96a4829
340
0
 70
     4
280
     1
281
     0
  0
BLOCK_RECORD
  5
77A
102
{ACAD_XDICTIONARY
360
784
102
}
330
1
100
AcDbSymbolTableRecord
100
AcDbBlockTableRecord
  2
A$Cb93298c6
340
0
 70
     4
280
     1
281
     0
  0
BLOCK_RECORD
  5
7AA
102
{ACAD_XDICTIONARY
360
7AC
102
}
330
1
100
AcDbSymbolTableRecord
100
AcDbBlockTableRecord
  2
A$C051058e6
340
0
 70
     4
280
     1
281
     0
  0
BLOCK_RECORD
  5
7C2
102
{ACAD_XDICTIONARY
360
7C4
102
}
330
1
100
AcDbSymbolTableRecord
100
AcDbBlockTableRecord
  2
A$C3001d329
340
0
 70
     4
280
     1
281
     0
  0
BLOCK_RECORD
  5
7D4
102
{ACAD_XDICTIONARY
360
7D6
102
}
330
1
100
AcDbSymbolTableRecord
100
AcDbBlockTableRecord
  2
A$C6241aea9
340
0
 70
     4
280
     1
281
     0
  0
BLOCK_RECORD
  5
812
102
{ACAD_XDICTIONARY
360
814
102
}
330
1
100
AcDbSymbolTableRecord
100
AcDbBlockTableRecord
  2
A$C660c9c52
340
0
 70
     4
280
     1
281
     0
  0
ENDTAB
  0
ENDSEC
  0
SECTION
  2
BLOCKS
  0
BLOCK
  5
70
330
6F
100
AcDbEntity
  8
0
100
AcDbBlockBegin
  2
*Model_Space
 70
     0
 10
0.0
 20
0.0
 30
0.0
  3
*Model_Space
  1

  0
ENDBLK
  5
71
330
6F
100
AcDbEntity
  8
0
100
AcDbBlockEnd
  0
BLOCK
  5
6C
330
6B
100
AcDbEntity
 67
     1
  8
0
100
AcDbBlockBegin
  2
*Paper_Space
 70
     0
 10
0.0
 20
0.0
 30
0.0
  3
*Paper_Space
  1

  0
ENDBLK
  5
6D
330
6B
100
AcDbEntity
 67
     1
  8
0
100
AcDbBlockEnd
  0
BLOCK
  5
53F
330
52D
100
AcDbEntity
  8
0
100
AcDbBlockBegin
  2
A$Cf96a4829
 70
     0
 10
0.0
 20
0.0
 30
0.0
  3
A$Cf96a4829
  1

  0
LWPOLYLINE
  5
52E
330
52D
100
AcDbEntity
  8
0
100
AcDbPolyline
 90
        8
 70
     1
 43
0.0
 10
-354.5504252050717
 20
-66.31080403011123
 42
0.4142135623730951
 10
-355.0504252050718
 20
-66.81080403011121
 10
-355.0504252050718
 20
-79.81080403011124
 42
0.4142135623730951
 10
-354.5504252050717
 20
-80.31080403011122
 10
-341.5504252050717
 20
-80.31080403011122
 42
0.4142135623730951
 10
-341.0504252050718
 20
-79.81080403011124
 10
-341.0504252050718
 20
-66.81080403011121
 42
0.4142135623730951
 10
-341.5504252050717
 20
-66.31080403011123
  0
LWPOLYLINE
  5
52F
330
52D
100
AcDbEntity
  8
0
100
AcDbPolyline
 90
        8
 70
     1
 43
0.0
 10
-375.9816752050717
 20
-66.31080403011123
 42
0.4142135623730951
 10
-376.4816752050717
 20
-66.81080403011121
 10
-376.4816752050717
 20
-79.81080403011124
 42
0.4142135623730951
 10
-375.9816752050717
 20
-80.31080403011122
 10
-362.9816752050717
 20
-80.31080403011122
 42
0.4142135623730951
 10
-362.4816752050717
 20
-79.81080403011124
 10
-362.4816752050717
 20
-66.81080403011121
 42
0.4142135623730951
 10
-362.9816752050717
 20
-66.31080403011123
  0
LWPOLYLINE
  5
530
330
52D
100
AcDbEntity
  8
0
100
AcDbPolyline
 90
        8
 70
     1
 43
0.0
 10
-135.4754252050717
 20
-47.26080403011124
 42
0.4142135623730951
 10
-135.9754252050717
 20
-47.76080403011124
 10
-135.9754252050717
 20
-60.76080403011125
 42
0.4142135623730951
 10
-135.4754252050717
 20
-61.26080403011124
 10
-122.4754252050717
 20
-61.26080403011124
 42
0.4142135623730951
 10
-121.9754252050717
 20
-60.76080403011125
 10
-121.9754252050717
 20
-47.76080403011124
 42
0.4142135623730951
 10
-122.4754252050717
 20
-47.26080403011124
  0
LWPOLYLINE
  5
531
330
52D
100
AcDbEntity
  8
0
100
AcDbPolyline
 90
        8
 70
     1
 43
0.0
 10
-101.5441752050717
 20
-53.67380403011122
 42
0.4142135623730951
 10
-102.0441752050717
 20
-53.17380403011123
 10
-116.0441752050717
 20
-53.17380403011123
 42
0.4142135623730951
 10
-116.5441752050717
 20
-53.67380403011122
 10
-116.5441752050717
 20
-59.67380403011123
 42
0.4142135623730951
 10
-116.0441752050717
 20
-60.17380403011123
 10
-102.0441752050717
 20
-60.17380403011123
 42
0.4142135623730951
 10
-101.5441752050717
 20
-59.67380403011123
  0
LWPOLYLINE
  5
532
330
52D
100
AcDbEntity
  8
0
100
AcDbPolyline
 90
        8
 70
     1
 43
0.0
 10
-101.5441752050717
 20
-29.79780403011125
 42
0.4142135623730951
 10
-102.0441752050717
 20
-29.29780403011125
 10
-116.0441752050717
 20
-29.29780403011125
 42
0.4142135623730951
 10
-116.5441752050717
 20
-29.79780403011125
 10
-116.5441752050717
 20
-35.79780403011125
 42
0.4142135623730951
 10
-116.0441752050717
 20
-36.29780403011125
 10
-102.0441752050717
 20
-36.29780403011125
 42
0.4142135623730951
 10
-101.5441752050717
 20
-35.79780403011125
  0
LWPOLYLINE
  5
533
330
52D
100
AcDbEntity
  8
0
100
AcDbPolyline
 90
        8
 70
     1
 43
0.0
 10
-114.0441752050717
 20
-37.73580403011124
 42
0.4142135623730951
 10
-114.5441752050717
 20
-38.23580403011124
 10
-114.5441752050717
 20
-51.23580403011125
 42
0.4142135623730951
 10
-114.0441752050717
 20
-51.73580403011125
 10
-101.0441752050717
 20
-51.73580403011125
 42
0.4142135623730951
 10
-100.5441752050717
 20
-51.23580403011125
 10
-100.5441752050717
 20
-38.23580403011124
 42
0.4142135623730951
 10
-101.0441752050717
 20
-37.73580403011124
  0
LWPOLYLINE
  5
534
330
52D
100
AcDbEntity
  8
0
100
AcDbPolyline
 90
        8
 70
     1
 43
0.0
 10
-135.4754252050717
 20
14.65169596988875
 42
0.4142135623730951
 10
-135.9754252050717
 20
14.15169596988875
 10
-135.9754252050717
 20
1.151695969888749
 42
0.4142135623730951
 10
-135.4754252050717
 20
0.651695969888749
 10
-122.4754252050717
 20
0.651695969888749
 42
0.4142135623730951
 10
-121.9754252050717
 20
1.151695969888749
 10
-121.9754252050717
 20
14.15169596988875
 42
0.4142135623730951
 10
-122.4754252050717
 20
14.65169596988875
  0
LWPOLYLINE
  5
535
330
52D
100
AcDbEntity
  8
0
100
AcDbPolyline
 90
        8
 70
     1
 43
0.0
 10
-154.5254252050717
 20
14.65169596988875
 42
0.4142135623730951
 10
-155.0254252050717
 20
14.15169596988875
 10
-155.0254252050717
 20
1.151695969888749
 42
0.4142135623730951
 10
-154.5254252050717
 20
0.651695969888749
 10
-141.5254252050717
 20
0.651695969888749
 42
0.4142135623730951
 10
-141.0254252050717
 20
1.151695969888749
 10
-141.0254252050717
 20
14.15169596988875
 42
0.4142135623730951
 10
-141.5254252050717
 20
14.65169596988875
  0
LWPOLYLINE
  5
536
330
52D
100
AcDbEntity
  8
0
100
AcDbPolyline
 90
        8
 70
     1
 43
0.0
 10
-173.5754252050717
 20
14.65169596988875
 42
0.4142135623730951
 10
-174.0754252050716
 20
14.15169596988875
 10
-174.0754252050716
 20
1.151695969888749
 42
0.4142135623730951
 10
-173.5754252050717
 20
0.651695969888749
 10
-160.5754252050716
 20
0.651695969888749
 42
0.4142135623730951
 10
-160.0754252050716
 20
1.151695969888749
 10
-160.0754252050716
 20
14.15169596988875
 42
0.4142135623730951
 10
-160.5754252050716
 20
14.65169596988875
  0
LWPOLYLINE
  5
537
330
52D
100
AcDbEntity
  8
0
100
AcDbPolyline
 90
        8
 70
     1
 43
0.0
 10
-192.6254252050717
 20
14.65169596988875
 42
0.4142135623730951
 10
-193.1254252050717
 20
14.15169596988875
 10
-193.1254252050717
 20
1.151695969888749
 42
0.4142135623730951
 10
-192.6254252050717
 20
0.651695969888749
 10
-179.6254252050716
 20
0.651695969888749
 42
0.4142135623730951
 10
-179.1254252050717
 20
1.151695969888749
 10
-179.1254252050717
 20
14.15169596988875
 42
0.4142135623730951
 10
-179.6254252050716
 20
14.65169596988875
  0
LWPOLYLINE
  5
538
330
52D
100
AcDbEntity
  8
0
100
AcDbPolyline
 90
        8
 70
     1
 43
0.0
 10
-273.5879252050716
 20
14.65169596988875
 42
0.4142135623730951
 10
-274.0879252050717
 20
14.15169596988875
 10
-274.0879252050717
 20
1.151695969888749
 42
0.4142135623730951
 10
-273.5879252050716
 20
0.651695969888749
 10
-260.5879252050717
 20
0.651695969888749
 42
0.4142135623730951
 10
-260.0879252050717
 20
1.151695969888749
 10
-260.0879252050717
 20
14.15169596988875
 42
0.4142135623730951
 10
-260.5879252050717
 20
14.65169596988875
  0
LWPOLYLINE
  5
539
330
52D
100
AcDbEntity
  8
0
100
AcDbPolyline
 90
        8
 70
     1
 43
0.0
 10
-297.4004252050717
 20
14.65169596988875
 42
0.4142135623730951
 10
-297.9004252050716
 20
14.15169596988875
 10
-297.9004252050716
 20
1.151695969888749
 42
0.4142135623730951
 10
-297.4004252050717
 20
0.651695969888749
 10
-284.4004252050717
 20
0.651695969888749
 42
0.4142135623730951
 10
-283.9004252050717
 20
1.151695969888749
 10
-283.9004252050717
 20
14.15169596988875
 42
0.4142135623730951
 10
-284.4004252050717
 20
14.65169596988875
  0
LWPOLYLINE
  5
53A
330
52D
100
AcDbEntity
  8
0
100
AcDbPolyline
 90
        8
 70
     1
 43
0.0
 10
-316.4504252050717
 20
14.65169596988875
 42
0.4142135623730951
 10
-316.9504252050717
 20
14.15169596988875
 10
-316.9504252050717
 20
1.151695969888749
 42
0.4142135623730951
 10
-316.4504252050717
 20
0.651695969888749
 10
-303.4504252050717
 20
0.651695969888749
 42
0.4142135623730951
 10
-302.9504252050717
 20
1.151695969888749
 10
-302.9504252050717
 20
14.15169596988875
 42
0.4142135623730951
 10
-303.4504252050717
 20
14.65169596988875
  0
LWPOLYLINE
  5
53B
330
52D
100
AcDbEntity
  8
0
100
AcDbPolyline
 90
        8
 70
     1
 43
0.0
 10
-335.5004252050717
 20
14.65169596988875
 42
0.4142135623730951
 10
-336.0004252050718
 20
14.15169596988875
 10
-336.0004252050718
 20
1.151695969888749
 42
0.4142135623730951
 10
-335.5004252050717
 20
0.651695969888749
 10
-322.5004252050717
 20
0.651695969888749
 42
0.4142135623730951
 10
-322.0004252050717
 20
1.151695969888749
 10
-322.0004252050717
 20
14.15169596988875
 42
0.4142135623730951
 10
-322.5004252050717
 20
14.65169596988875
  0
LWPOLYLINE
  5
53C
330
52D
100
AcDbEntity
  8
0
100
AcDbPolyline
 90
        8
 70
     1
 43
0.0
 10
-354.5504252050717
 20
14.65169596988875
 42
0.4142135623730951
 10
-355.0504252050718
 20
14.15169596988875
 10
-355.0504252050718
 20
1.151695969888749
 42
0.4142135623730951
 10
-354.5504252050717
 20
0.651695969888749
 10
-341.5504252050717
 20
0.651695969888749
 42
0.4142135623730951
 10
-341.0504252050718
 20
1.151695969888749
 10
-341.0504252050718
 20
14.15169596988875
 42
0.4142135623730951
 10
-341.5504252050717
 20
14.65169596988875
  0
ENDBLK
  5
540
330
52D
100
AcDbEntity
  8
0
100
AcDbBlockEnd
  0
BLOCK
  5
786
330
77A
100
AcDbEntity
  8
0
100
AcDbBlockBegin
  2
A$Cb93298c6
 70
     0
 10
0.0
 20
0.0
 30
0.0
  3
A$Cb93298c6
  1

  0
LWPOLYLINE
  5
77B
330
77A
100
AcDbEntity
  8
0
100
AcDbPolyline
 90
        8
 70
     1
 43
0.0
 10
255.4375
 20
-76.2
 42
0.4142135623730951
 10
254.9375
 20
-76.7
 10
254.9375
 20
-89.7
 42
0.4142135623730951
 10
255.4375
 20
-90.20000000000001
 10
268.4374999999999
 20
-90.20000000000001
 42
0.4142135623730951
 10
268.9375
 20
-89.7
 10
268.9375
 20
-76.7
 42
0.4142135623730951
 10
268.4374999999999
 20
-76.2
  0
LWPOLYLINE
  5
77C
330
77A
100
AcDbEntity
  8
0
100
AcDbPolyline
 90
        8
 70
     1
 43
0.0
 10
231.625
 20
-76.2
 42
0.4142135623730951
 10
231.125
 20
-76.7
 10
231.125
 20
-89.7
 42
0.4142135623730951
 10
231.625
 20
-90.20000000000001
 10
244.625
 20
-90.20000000000001
 42
0.4142135623730951
 10
245.125
 20
-89.7
 10
245.125
 20
-76.7
 42
0.4142135623730951
 10
244.625
 20
-76.2
  0
LWPOLYLINE
  5
77D
330
77A
100
AcDbEntity
  8
0
100
AcDbPolyline
 90
        8
 70
     1
 43
0.0
 10
207.8125
 20
-76.2
 42
0.4142135623730951
 10
207.3125
 20
-76.7
 10
207.3125
 20
-89.7
 42
0.4142135623730951
 10
207.8125
 20
-90.20000000000001
 10
220.8125
 20
-90.20000000000001
 42
0.4142135623730951
 10
221.3125
 20
-89.7
 10
221.3125
 20
-76.7
 42
0.4142135623730951
 10
220.8125
 20
-76.2
  0
LWPOLYLINE
  5
77E
330
77A
100
AcDbEntity
  8
0
100
AcDbPolyline
 90
       12
 70
     1
 43
0.0
 10
187.5
 20
-75.2
 42
0.4142135623730951
 10
187.0
 20
-75.7
 10
187.0
 20
-76.7
 10
187.0
 20
-89.7
 10
187.0
 20
-90.7
 42
0.4142135623730951
 10
187.5
 20
-91.2
 10
193.5
 20
-91.2
 42
0.4142135623730951
 10
194.0
 20
-90.7
 10
194.0
 20
-89.7
 10
194.0
 20
-76.7
 10
194.0
 20
-75.7
 42
0.4142135623730951
 10
193.5
 20
-75.2
  0
LWPOLYLINE
  5
77F
330
77A
100
AcDbEntity
  8
0
100
AcDbPolyline
 90
       12
 70
     1
 43
0.0
 10
73.2
 20
-75.2
 42
0.4142135623730951
 10
72.7
 20
-75.7
 10
72.7
 20
-76.7
 10
72.7
 20
-89.7
 10
72.7
 20
-90.7
 42
0.4142135623730951
 10
73.2
 20
-91.2
 10
79.2
 20
-91.2
 42
0.4142135623730951
 10
79.7
 20
-90.7
 10
79.7
 20
-89.7
 10
79.7
 20
-76.7
 10
79.7
 20
-75.7
 42
0.4142135623730951
 10
79.2
 20
-75.2
  0
LWPOLYLINE
  5
780
330
77A
100
AcDbEntity
  8
0
100
AcDbPolyline
 90
        8
 70
     1
 43
0.0
 10
45.8875
 20
-76.2
 42
0.4142135623730951
 10
45.3875
 20
-76.7
 10
45.3875
 20
-89.7
 42
0.4142135623730951
 10
45.8875
 20
-90.20000000000001
 10
58.8875
 20
-90.20000000000001
 42
0.4142135623730951
 10
59.3875
 20
-89.7
 10
59.3875
 20
-76.7
 42
0.4142135623730951
 10
58.8875
 20
-76.2
  0
LWPOLYLINE
  5
781
330
77A
100
AcDbEntity
  8
0
100
AcDbPolyline
 90
        8
 70
     1
 43
0.0
 10
22.075
 20
-76.2
 42
0.4142135623730951
 10
21.575
 20
-76.7
 10
21.575
 20
-89.7
 42
0.4142135623730951
 10
22.075
 20
-90.20000000000001
 10
35.075
 20
-90.20000000000001
 42
0.4142135623730951
 10
35.575
 20
-89.7
 10
35.575
 20
-76.7
 42
0.4142135623730951
 10
35.075
 20
-76.2
  0
LWPOLYLINE
  5
782
330
77A
100
AcDbEntity
  8
0
100
AcDbPolyline
 90
        8
 70
     1
 43
0.0
 10
-1.737499999999997
 20
-76.2
 42
0.4142135623730951
 10
-2.237499999999998
 20
-76.7
 10
-2.237499999999998
 20
-89.7
 42
0.4142135623730951
 10
-1.737499999999997
 20
-90.20000000000001
 10
11.2625
 20
-90.20000000000001
 42
0.4142135623730951
 10
11.7625
 20
-89.7
 10
11.7625
 20
-76.7
 42
0.4142135623730951
 10
11.2625
 20
-76.2
  0
LWPOLYLINE
  5
783
330
77A
100
AcDbEntity
  8
0
100
AcDbPolyline
 90
        8
 70
     1
 43
0.0
 10
126.8499999999999
 20
-90.20000000000001
 42
-0.4142135623730951
 10
126.3499999999999
 20
-89.70000000000002
 10
126.3499999999999
 20
-76.70000000000001
 42
-0.4142135623730951
 10
126.8499999999999
 20
-76.20000000000001
 10
139.8499999999999
 20
-76.20000000000001
 42
-0.4142135623730951
 10
140.35
 20
-76.70000000000001
 10
140.35
 20
-89.70000000000002
 42
-0.4142135623730951
 10
139.8499999999999
 20
-90.20000000000001
  0
ENDBLK
  5
787
330
77A
100
AcDbEntity
  8
0
100
AcDbBlockEnd
  0
BLOCK
  5
7AE
330
7AA
100
AcDbEntity
  8
0
100
AcDbBlockBegin
  2
A$C051058e6
 70
     0
 10
0.0
 20
0.0
 30
0.0
  3
A$C051058e6
  1

  0
LWPOLYLINE
  5
7AB
330
7AA
100
AcDbEntity
  8
0
100
AcDbPolyline
 90
       12
 70
     1
 43
0.0
 10
47.15000000000002
 20
8.0
 42
0.4142135623730951
 10
46.65000000000002
 20
7.5
 10
46.65000000000002
 20
6.5
 10
46.65000000000002
 20
-6.5
 10
46.65000000000002
 20
-7.5
 42
0.4142135623730951
 10
47.15000000000002
 20
-8.0
 10
53.15000000000003
 20
-8.0
 42
0.4142135623730951
 10
53.65000000000002
 20
-7.5
 10
53.65000000000002
 20
-6.5
 10
53.65000000000002
 20
6.5
 10
53.65000000000002
 20
7.5
 42
0.4142135623730951
 10
53.15000000000003
 20
8.0
  0
ENDBLK
  5
7AF
330
7AA
100
AcDbEntity
  8
0
100
AcDbBlockEnd
  0
BLOCK
  5
7C6
330
7C2
100
AcDbEntity
  8
0
100
AcDbBlockBegin
  2
A$C3001d329
 70
     0
 10
0.0
 20
0.0
 30
0.0
  3
A$C3001d329
  1

  0
LWPOLYLINE
  5
7C3
330
7C2
100
AcDbEntity
  8
0
  6
Continuous
100
AcDbPolyline
 90
        8
 70
     1
 43
0.0
 10
46.65000000000002
 20
-8.5
 10
46.65000000000002
 20
8.5
 42
-0.4142135623730951
 10
47.15000000000002
 20
9.0
 10
53.15000000000003
 20
9.0
 42
-0.4142135623730951
 10
53.65000000000002
 20
8.5
 10
53.65000000000002
 20
-8.5
 42
-0.4142135623730951
 10
53.15000000000003
 20
-9.0
 10
47.15000000000002
 20
-9.0
 42
-0.4142135623730951
  0
ENDBLK
  5
7C7
330
7C2
100
AcDbEntity
  8
0
100
AcDbBlockEnd
  0
BLOCK
  5
7D8
330
7D4
100
AcDbEntity
  8
0
100
AcDbBlockBegin
  2
A$C6241aea9
 70
     0
 10
0.0
 20
0.0
 30
0.0
  3
A$C6241aea9
  1

  0
LWPOLYLINE
  5
7D5
330
7D4
100
AcDbEntity
  8
0
  6
Continuous
100
AcDbPolyline
 90
        4
 70
     1
 43
0.0
 10
-14.28750000000002
 20
9.5
 10
14.28749999999996
 20
9.5
 10
14.28749999999996
 20
-9.5
 10
-14.28750000000002
 20
-9.5
  0
ENDBLK
  5
7D9
330
7D4
100
AcDbEntity
  8
0
100
AcDbBlockEnd
  0
BLOCK
  5
816
330
812
100
AcDbEntity
  8
0
100
AcDbBlockBegin
  2
A$C660c9c52
 70
     0
 10
0.0
 20
0.0
 30
0.0
  3
A$C660c9c52
  1

  0
LINE
  5
813
330
812
100
AcDbEntity
  8
0
  6
Continuous
100
AcDbLine
 10
0.0
 20
0.0
 30
0.0
 11
0.0
 21
19.05000000000001
 31
0.0
  0
ENDBLK
  5
817
330
812
100
AcDbEntity
  8
0
100
AcDbBlockEnd
  0
ENDSEC
  0
SECTION
  2
ENTITIES
  0
LWPOLYLINE
  5
499
330
6F
100
AcDbEntity
  8
0
100
AcDbPolyline
 90
        8
 70
     1
 43
0.0
 10
331.6375
 20
-102.5375
 42
0.4142135623730951
 10
331.1375
 20
-103.0375
 10
331.1375
 20
-116.0375
 42
0.4142135623730951
 10
331.6375
 20
-116.5375
 10
344.6375
 20
-116.5375
 42
0.4142135623730951
 10
345.1375
 20
-116.0375
 10
345.1375
 20
-103.0375
 42
0.4142135623730951
 10
344.6375
 20
-102.5375
  0
LWPOLYLINE
  5
49A
330
6F
100
AcDbEntity
  8
0
100
AcDbPolyline
 90
        8
 70
     1
 43
0.0
 10
312.5875
 20
-102.5375
 42
0.4142135623730951
 10
312.0875
 20
-103.0375
 10
312.0875
 20
-116.0375
 42
0.4142135623730951
 10
312.5875
 20
-116.5375
 10
325.5875
 20
-116.5375
 42
0.4142135623730951
 10
326.0875
 20
-116.0375
 10
326.0875
 20
-103.0375
 42
0.4142135623730951
 10
325.5875
 20
-102.5375
  0
LWPOLYLINE
  5
49B
330
6F
100
AcDbEntity
  8
0
100
AcDbPolyline
 90
        8
 70
     1
 43
0.0
 10
293.5375
 20
-102.5375
 42
0.4142135623730951
 10
293.0375
 20
-103.0375
 10
293.0375
 20
-116.0375
 42
0.4142135623730951
 10
293.5375
 20
-116.5375
 10
306.5375
 20
-116.5375
 42
0.4142135623730951
 10
307.0375
 20
-116.0375
 10
307.0375
 20
-103.0375
 42
0.4142135623730951
 10
306.5375
 20
-102.5375
  0
LWPOLYLINE
  5
4A5
330
6F
100
AcDbEntity
  8
0
100
AcDbPolyline
 90
        8
 70
     1
 43
0.0
 10
312.5875
 20
-83.4875
 42
0.4142135623730951
 10
312.0875
 20
-83.98749999999997
 10
312.0875
 20
-96.9875
 42
0.4142135623730951
 10
312.5875
 20
-97.48750000000001
 10
325.5875
 20
-97.48750000000001
 42
0.4142135623730951
 10
326.0875
 20
-96.9875
 10
326.0875
 20
-83.98749999999997
 42
0.4142135623730951
 10
325.5875
 20
-83.4875
  0
LWPOLYLINE
  5
4A8
330
6F
100
AcDbEntity
  8
0
100
AcDbPolyline
 90
        8
 70
     1
 43
0.0
 10
217.3375
 20
-83.4875
 42
0.4142135623730951
 10
216.8375
 20
-83.98749999999997
 10
216.8375
 20
-96.9875
 42
0.4142135623730951
 10
217.3375
 20
-97.48750000000001
 10
230.3375
 20
-97.48750000000001
 42
0.4142135623730951
 10
230.8375
 20
-96.9875
 10
230.8375
 20
-83.98749999999997
 42
0.4142135623730951
 10
230.3375
 20
-83.4875
  0
LWPOLYLINE
  5
4A9
330
6F
100
AcDbEntity
  8
0
100
AcDbPolyline
 90
        8
 70
     1
 43
0.0
 10
198.2875
 20
-83.4875
 42
0.4142135623730951
 10
197.7875
 20
-83.98749999999997
 10
197.7875
 20
-96.9875
 42
0.4142135623730951
 10
198.2875
 20
-97.48750000000001
 10
211.2875
 20
-97.48750000000001
 42
0.4142135623730951
 10
211.7875
 20
-96.9875
 10
211.7875
 20
-83.98749999999997
 42
0.4142135623730951
 10
211.2875
 20
-83.4875
  0
LWPOLYLINE
  5
4AA
330
6F
100
AcDbEntity
  8
0
100
AcDbPolyline
 90
        8
 70
     1
 43
0.0
 10
179.2375
 20
-83.4875
 42
0.4142135623730951
 10
178.7375
 20
-83.98749999999997
 10
178.7375
 20
-96.9875
 42
0.4142135623730951
 10
179.2375
 20
-97.48750000000001
 10
192.2375
 20
-97.48750000000001
 42
0.4142135623730951
 10
192.7375
 20
-96.9875
 10
192.7375
 20
-83.98749999999997
 42
0.4142135623730951
 10
192.2375
 20
-83.4875
  0
LWPOLYLINE
  5
4AB
330
6F
100
AcDbEntity
  8
0
100
AcDbPolyline
 90
        8
 70
     1
 43
0.0
 10
160.1875
 20
-83.4875
 42
0.4142135623730951
 10
159.6875
 20
-83.98749999999997
 10
159.6875
 20
-96.9875
 42
0.4142135623730951
 10
160.1875
 20
-97.48750000000001
 10
173.1875
 20
-97.48750000000001
 42
0.4142135623730951
 10
173.6875
 20
-96.9875
 10
173.6875
 20
-83.98749999999997
 42
0.4142135623730951
 10
173.1875
 20
-83.4875
  0
LWPOLYLINE
  5
4AC
330
6F
100
AcDbEntity
  8
0
100
AcDbPolyline
 90
        8
 70
     1
 43
0.0
 10
141.1375
 20
-83.4875
 42
0.4142135623730951
 10
140.6375
 20
-83.98749999999997
 10
140.6375
 20
-96.9875
 42
0.4142135623730951
 10
141.1375
 20
-97.48750000000001
 10
154.1375
 20
-97.48750000000001
 42
0.4142135623730951
 10
154.6375
 20
-96.9875
 10
154.6375
 20
-83.98749999999997
 42
0.4142135623730951
 10
154.1375
 20
-83.4875
  0
LWPOLYLINE
  5
4AD
330
6F
100
AcDbEntity
  8
0
100
AcDbPolyline
 90
        8
 70
     1
 43
0.0
 10
122.0875
 20
-83.4875
 42
0.4142135623730951
 10
121.5875
 20
-83.98749999999997
 10
121.5875
 20
-96.9875
 42
0.4142135623730951
 10
122.0875
 20
-97.48750000000001
 10
135.0875
 20
-97.48750000000001
 42
0.4142135623730951
 10
135.5875
 20
-96.9875
 10
135.5875
 20
-83.98749999999997
 42
0.4142135623730951
 10
135.0875
 20
-83.4875
  0
LWPOLYLINE
  5
4AE
330
6F
100
AcDbEntity
  8
0
100
AcDbPolyline
 90
        8
 70
     1
 43
0.0
 10
103.0375
 20
-83.4875
 42
0.4142135623730951
 10
102.5375
 20
-83.98749999999997
 10
102.5375
 20
-96.9875
 42
0.4142135623730951
 10
103.0375
 20
-97.48750000000001
 10
116.0375
 20
-97.48750000000001
 42
0.4142135623730951
 10
116.5375
 20
-96.9875
 10
116.5375
 20
-83.98749999999997
 42
0.4142135623730951
 10
116.0375
 20
-83.4875
  0
LWPOLYLINE
  5
4AF
330
6F
100
AcDbEntity
  8
0
100
AcDbPolyline
 90
        8
 70
     1
 43
0.0
 10
83.98749999999997
 20
-83.4875
 42
0.4142135623730951
 10
83.4875
 20
-83.98749999999997
 10
83.4875
 20
-96.9875
 42
0.4142135623730951
 10
83.98749999999997
 20
-97.48750000000001
 10
96.9875
 20
-97.48750000000001
 42
0.4142135623730951
 10
97.48750000000001
 20
-96.9875
 10
97.48750000000001
 20
-83.98749999999997
 42
0.4142135623730951
 10
96.9875
 20
-83.4875
  0
LWPOLYLINE
  5
4B0
330
6F
100
AcDbEntity
  8
0
100
AcDbPolyline
 90
        8
 70
     1
 43
0.0
 10
64.9375
 20
-83.4875
 42
0.4142135623730951
 10
64.4375
 20
-83.98749999999997
 10
64.4375
 20
-96.9875
 42
0.4142135623730951
 10
64.9375
 20
-97.48750000000001
 10
77.9375
 20
-97.48750000000001
 42
0.4142135623730951
 10
78.4375
 20
-96.9875
 10
78.4375
 20
-83.98749999999997
 42
0.4142135623730951
 10
77.9375
 20
-83.4875
  0
LWPOLYLINE
  5
4B1
330
6F
100
AcDbEntity
  8
0
100
AcDbPolyline
 90
        8
 70
     1
 43
0.0
 10
45.8875
 20
-83.4875
 42
0.4142135623730951
 10
45.3875
 20
-83.98749999999997
 10
45.3875
 20
-96.9875
 42
0.4142135623730951
 10
45.8875
 20
-97.48750000000001
 10
58.8875
 20
-97.48750000000001
 42
0.4142135623730951
 10
59.3875
 20
-96.9875
 10
59.3875
 20
-83.98749999999997
 42
0.4142135623730951
 10
58.8875
 20
-83.4875
  0
LWPOLYLINE
  5
4B2
330
6F
100
AcDbEntity
  8
0
100
AcDbPolyline
 90
        8
 70
     1
 43
0.0
 10
30.36925
 20
-84.4875
 42
0.4142135623730951
 10
29.86925
 20
-84.98749999999999
 10
29.86925
 20
-98.98749999999999
 42
0.4142135623730951
 10
30.36925
 20
-99.4875
 10
36.36925
 20
-99.4875
 42
0.4142135623730951
 10
36.86925
 20
-98.98749999999999
 10
36.86925
 20
-84.98749999999999
 42
0.4142135623730951
 10
36.36925
 20
-84.4875
  0
LWPOLYLINE
  5
4B3
330
6F
100
AcDbEntity
  8
0
100
AcDbPolyline
 90
        8
 70
     1
 43
0.0
 10
6.493249999999997
 20
-84.4875
 42
0.4142135623730951
 10
5.993249999999997
 20
-84.98749999999999
 10
5.993249999999997
 20
-98.98749999999999
 42
0.4142135623730951
 10
6.493249999999997
 20
-99.4875
 10
12.49325
 20
-99.4875
 42
0.4142135623730951
 10
12.99325
 20
-98.98749999999999
 10
12.99325
 20
-84.98749999999999
 42
0.4142135623730951
 10
12.49325
 20
-84.4875
  0
LWPOLYLINE
  5
4B4
330
6F
100
AcDbEntity
  8
0
100
AcDbPolyline
 90
        8
 70
     1
 43
0.0
 10
14.93125
 20
-83.4875
 42
0.4142135623730951
 10
14.43125
 20
-83.98749999999997
 10
14.43125
 20
-96.9875
 42
0.4142135623730951
 10
14.93125
 20
-97.48750000000001
 10
27.93125
 20
-97.48750000000001
 42
0.4142135623730951
 10
28.43125
 20
-96.9875
 10
28.43125
 20
-83.98749999999997
 42
0.4142135623730951
 10
27.93125
 20
-83.4875
  0
LWPOLYLINE
  5
4B5
330
6F
100
AcDbEntity
  8
0
100
AcDbPolyline
 90
        8
 70
     1
 43
0.0
 10
255.38075
 20
-77.4375
 42
0.4142135623730951
 10
255.88075
 20
-76.9375
 10
255.88075
 20
-62.9375
 42
0.4142135623730951
 10
255.38075
 20
-62.4375
 10
249.38075
 20
-62.4375
 42
0.4142135623730951
 10
248.88075
 20
-62.9375
 10
248.88075
 20
-76.9375
 42
0.4142135623730951
 10
249.38075
 20
-77.4375
  0
LWPOLYLINE
  5
4B6
330
6F
100
AcDbEntity
  8
0
100
AcDbPolyline
 90
        8
 70
     1
 43
0.0
 10
279.25675
 20
-77.4375
 42
0.4142135623730951
 10
279.75675
 20
-76.9375
 10
279.75675
 20
-62.9375
 42
0.4142135623730951
 10
279.25675
 20
-62.4375
 10
273.25675
 20
-62.4375
 42
0.4142135623730951
 10
272.75675
 20
-62.9375
 10
272.75675
 20
-76.9375
 42
0.4142135623730951
 10
273.25675
 20
-77.4375
  0
LWPOLYLINE
  5
4B7
330
6F
100
AcDbEntity
  8
0
100
AcDbPolyline
 90
        8
 70
     1
 43
0.0
 10
257.81875
 20
-64.4375
 42
0.4142135623730951
 10
257.31875
 20
-64.9375
 10
257.31875
 20
-77.9375
 42
0.4142135623730951
 10
257.81875
 20
-78.4375
 10
270.81875
 20
-78.4375
 42
0.4142135623730951
 10
271.31875
 20
-77.9375
 10
271.31875
 20
-64.9375
 42
0.4142135623730951
 10
270.81875
 20
-64.4375
  0
LWPOLYLINE
  5
4B8
330
6F
100
AcDbEntity
  8
0
100
AcDbPolyline
 90
        8
 70
     1
 43
0.0
 10
226.8625
 20
-64.4375
 42
0.4142135623730951
 10
226.3625
 20
-64.9375
 10
226.3625
 20
-77.9375
 42
0.4142135623730951
 10
226.8625
 20
-78.4375
 10
239.8625
 20
-78.4375
 42
0.4142135623730951
 10
240.3625
 20
-77.9375
 10
240.3625
 20
-64.9375
 42
0.4142135623730951
 10
239.8625
 20
-64.4375
  0
LWPOLYLINE
  5
4B9
330
6F
100
AcDbEntity
  8
0
100
AcDbPolyline
 90
        8
 70
     1
 43
0.0
 10
207.8125
 20
-64.4375
 42
0.4142135623730951
 10
207.3125
 20
-64.9375
 10
207.3125
 20
-77.9375
 42
0.4142135623730951
 10
207.8125
 20
-78.4375
 10
220.8125
 20
-78.4375
 42
0.4142135623730951
 10
221.3125
 20
-77.9375
 10
221.3125
 20
-64.9375
 42
0.4142135623730951
 10
220.8125
 20
-64.4375
  0
LWPOLYLINE
  5
4BA
330
6F
100
AcDbEntity
  8
0
100
AcDbPolyline
 90
        8
 70
     1
 43
0.0
 10
188.7625
 20
-64.4375
 42
0.4142135623730951
 10
188.2625
 20
-64.9375
 10
188.2625
 20
-77.9375
 42
0.4142135623730951
 10
188.7625
 20
-78.4375
 10
201.7625
 20
-78.4375
 42
0.4142135623730951
 10
202.2625
 20
-77.9375
 10
202.2625
 20
-64.9375
 42
0.4142135623730951
 10
201.7625
 20
-64.4375
  0
LWPOLYLINE
  5
4BB
330
6F
100
AcDbEntity
  8
0
100
AcDbPolyline
 90
        8
 70
     1
 43
0.0
 10
169.7125
 20
-64.4375
 42
0.4142135623730951
 10
169.2125
 20
-64.9375
 10
169.2125
 20
-77.9375
 42
0.4142135623730951
 10
169.7125
 20
-78.4375
 10
182.7125
 20
-78.4375
 42
0.4142135623730951
 10
183.2125
 20
-77.9375
 10
183.2125
 20
-64.9375
 42
0.4142135623730951
 10
182.7125
 20
-64.4375
  0
LWPOLYLINE
  5
4BC
330
6F
100
AcDbEntity
  8
0
100
AcDbPolyline
 90
        8
 70
     1
 43
0.0
 10
150.6625
 20
-64.4375
 42
0.4142135623730951
 10
150.1625
 20
-64.9375
 10
150.1625
 20
-77.9375
 42
0.4142135623730951
 10
150.6625
 20
-78.4375
 10
163.6625
 20
-78.4375
 42
0.4142135623730951
 10
164.1625
 20
-77.9375
 10
164.1625
 20
-64.9375
 42
0.4142135623730951
 10
163.6625
 20
-64.4375
  0
LWPOLYLINE
  5
4BD
330
6F
100
AcDbEntity
  8
0
100
AcDbPolyline
 90
        8
 70
     1
 43
0.0
 10
131.6125
 20
-64.4375
 42
0.4142135623730951
 10
131.1125
 20
-64.9375
 10
131.1125
 20
-77.9375
 42
0.4142135623730951
 10
131.6125
 20
-78.4375
 10
144.6125
 20
-78.4375
 42
0.4142135623730951
 10
145.1125
 20
-77.9375
 10
145.1125
 20
-64.9375
 42
0.4142135623730951
 10
144.6125
 20
-64.4375
  0
LWPOLYLINE
  5
4BE
330
6F
100
AcDbEntity
  8
0
100
AcDbPolyline
 90
        8
 70
     1
 43
0.0
 10
112.5625
 20
-64.4375
 42
0.4142135623730951
 10
112.0625
 20
-64.9375
 10
112.0625
 20
-77.9375
 42
0.4142135623730951
 10
112.5625
 20
-78.4375
 10
125.5625
 20
-78.4375
 42
0.4142135623730951
 10
126.0625
 20
-77.9375
 10
126.0625
 20
-64.9375
 42
0.4142135623730951
 10
125.5625
 20
-64.4375
  0
LWPOLYLINE
  5
4BF
330
6F
100
AcDbEntity
  8
0
100
AcDbPolyline
 90
        8
 70
     1
 43
0.0
 10
93.5125
 20
-64.4375
 42
0.4142135623730951
 10
93.01250000000001
 20
-64.9375
 10
93.01250000000001
 20
-77.9375
 42
0.4142135623730951
 10
93.5125
 20
-78.4375
 10
106.5125
 20
-78.4375
 42
0.4142135623730951
 10
107.0125
 20
-77.9375
 10
107.0125
 20
-64.9375
 42
0.4142135623730951
 10
106.5125
 20
-64.4375
  0
LWPOLYLINE
  5
4C0
330
6F
100
AcDbEntity
  8
0
100
AcDbPolyline
 90
        8
 70
     1
 43
0.0
 10
74.4625
 20
-64.4375
 42
0.4142135623730951
 10
73.96250000000001
 20
-64.9375
 10
73.96250000000001
 20
-77.9375
 42
0.4142135623730951
 10
74.4625
 20
-78.4375
 10
87.46250000000001
 20
-78.4375
 42
0.4142135623730951
 10
87.9625
 20
-77.9375
 10
87.9625
 20
-64.9375
 42
0.4142135623730951
 10
87.46250000000001
 20
-64.4375
  0
LWPOLYLINE
  5
4C1
330
6F
100
AcDbEntity
  8
0
100
AcDbPolyline
 90
        8
 70
     1
 43
0.0
 10
55.4125
 20
-64.4375
 42
0.4142135623730951
 10
54.9125
 20
-64.9375
 10
54.9125
 20
-77.9375
 42
0.4142135623730951
 10
55.4125
 20
-78.4375
 10
68.41249999999999
 20
-78.4375
 42
0.4142135623730951
 10
68.91249999999999
 20
-77.9375
 10
68.91249999999999
 20
-64.9375
 42
0.4142135623730951
 10
68.41249999999999
 20
-64.4375
  0
LWPOLYLINE
  5
4C2
330
6F
100
AcDbEntity
  8
0
100
AcDbPolyline
 90
        8
 70
     1
 43
0.0
 10
36.3625
 20
-64.4375
 42
0.4142135623730951
 10
35.8625
 20
-64.9375
 10
35.8625
 20
-77.9375
 42
0.4142135623730951
 10
36.3625
 20
-78.4375
 10
49.3625
 20
-78.4375
 42
0.4142135623730951
 10
49.8625
 20
-77.9375
 10
49.8625
 20
-64.9375
 42
0.4142135623730951
 10
49.3625
 20
-64.4375
  0
LWPOLYLINE
  5
4C4
330
6F
100
AcDbEntity
  8
0
100
AcDbPolyline
 90
        8
 70
     1
 43
0.0
 10
331.6375
 20
-45.3875
 42
0.4142135623730951
 10
331.1375
 20
-45.8875
 10
331.1375
 20
-58.8875
 42
0.4142135623730951
 10
331.6375
 20
-59.3875
 10
344.6375
 20
-59.3875
 42
0.4142135623730951
 10
345.1375
 20
-58.8875
 10
345.1375
 20
-45.8875
 42
0.4142135623730951
 10
344.6375
 20
-45.3875
  0
LWPOLYLINE
  5
4C5
330
6F
100
AcDbEntity
  8
0
100
AcDbPolyline
 90
        8
 70
     1
 43
0.0
 10
312.5875
 20
-45.3875
 42
0.4142135623730951
 10
312.0875
 20
-45.8875
 10
312.0875
 20
-58.8875
 42
0.4142135623730951
 10
312.5875
 20
-59.3875
 10
325.5875
 20
-59.3875
 42
0.4142135623730951
 10
326.0875
 20
-58.8875
 10
326.0875
 20
-45.8875
 42
0.4142135623730951
 10
325.5875
 20
-45.3875
  0
LWPOLYLINE
  5
4C6
330
6F
100
AcDbEntity
  8
0
100
AcDbPolyline
 90
        8
 70
     1
 43
0.0
 10
293.5375
 20
-45.3875
 42
0.4142135623730951
 10
293.0375
 20
-45.8875
 10
293.0375
 20
-58.8875
 42
0.4142135623730951
 10
293.5375
 20
-59.3875
 10
306.5375
 20
-59.3875
 42
0.4142135623730951
 10
307.0375
 20
-58.8875
 10
307.0375
 20
-45.8875
 42
0.4142135623730951
 10
306.5375
 20
-45.3875
  0
LWPOLYLINE
  5
4C7
330
6F
100
AcDbEntity
  8
0
100
AcDbPolyline
 90
        8
 70
     1
 43
0.0
 10
264.9625
 20
-45.3875
 42
0.4142135623730951
 10
264.4625
 20
-45.8875
 10
264.4625
 20
-58.8875
 42
0.4142135623730951
 10
264.9625
 20
-59.3875
 10
277.9625
 20
-59.3875
 42
0.4142135623730951
 10
278.4625
 20
-58.8875
 10
278.4625
 20
-45.8875
 42
0.4142135623730951
 10
277.9625
 20
-45.3875
  0
LWPOLYLINE
  5
4C8
330
6F
100
AcDbEntity
  8
0
100
AcDbPolyline
 90
        8
 70
     1
 43
0.0
 10
241.15
 20
-45.3875
 42
0.4142135623730951
 10
240.65
 20
-45.8875
 10
240.65
 20
-58.8875
 42
0.4142135623730951
 10
241.15
 20
-59.3875
 10
254.15
 20
-59.3875
 42
0.4142135623730951
 10
254.65
 20
-58.8875
 10
254.65
 20
-45.8875
 42
0.4142135623730951
 10
254.15
 20
-45.3875
  0
LWPOLYLINE
  5
4C9
330
6F
100
AcDbEntity
  8
0
100
AcDbPolyline
 90
        8
 70
     1
 43
0.0
 10
222.1
 20
-45.3875
 42
0.4142135623730951
 10
221.6
 20
-45.8875
 10
221.6
 20
-58.8875
 42
0.4142135623730951
 10
222.1
 20
-59.3875
 10
235.1
 20
-59.3875
 42
0.4142135623730951
 10
235.6
 20
-58.8875
 10
235.6
 20
-45.8875
 42
0.4142135623730951
 10
235.1
 20
-45.3875
  0
LWPOLYLINE
  5
4CA
330
6F
100
AcDbEntity
  8
0
100
AcDbPolyline
 90
        8
 70
     1
 43
0.0
 10
203.05
 20
-45.3875
 42
0.4142135623730951
 10
202.55
 20
-45.8875
 10
202.55
 20
-58.8875
 42
0.4142135623730951
 10
203.05
 20
-59.3875
 10
216.05
 20
-59.3875
 42
0.4142135623730951
 10
216.55
 20
-58.8875
 10
216.55
 20
-45.8875
 42
0.4142135623730951
 10
216.05
 20
-45.3875
  0
LWPOLYLINE
  5
4CB
330
6F
100
AcDbEntity
  8
0
100
AcDbPolyline
 90
        8
 70
     1
 43
0.0
 10
184.0
 20
-45.3875
 42
0.4142135623730951
 10
183.5
 20
-45.8875
 10
183.5
 20
-58.8875
 42
0.4142135623730951
 10
184.0
 20
-59.3875
 10
197.0
 20
-59.3875
 42
0.4142135623730951
 10
197.5
 20
-58.8875
 10
197.5
 20
-45.8875
 42
0.4142135623730951
 10
197.0
 20
-45.3875
  0
LWPOLYLINE
  5
4CC
330
6F
100
AcDbEntity
  8
0
100
AcDbPolyline
 90
        8
 70
     1
 43
0.0
 10
164.95
 20
-45.3875
 42
0.4142135623730951
 10
164.45
 20
-45.8875
 10
164.45
 20
-58.8875
 42
0.4142135623730951
 10
164.95
 20
-59.3875
 10
177.95
 20
-59.3875
 42
0.4142135623730951
 10
178.45
 20
-58.8875
 10
178.45
 20
-45.8875
 42
0.4142135623730951
 10
177.95
 20
-45.3875
  0
LWPOLYLINE
  5
4CD
330
6F
100
AcDbEntity
  8
0
100
AcDbPolyline
 90
        8
 70
     1
 43
0.0
 10
145.9
 20
-45.3875
 42
0.4142135623730951
 10
145.4
 20
-45.8875
 10
145.4
 20
-58.8875
 42
0.4142135623730951
 10
145.9
 20
-59.3875
 10
158.9
 20
-59.3875
 42
0.4142135623730951
 10
159.4
 20
-58.8875
 10
159.4
 20
-45.8875
 42
0.4142135623730951
 10
158.9
 20
-45.3875
  0
LWPOLYLINE
  5
4CE
330
6F
100
AcDbEntity
  8
0
100
AcDbPolyline
 90
        8
 70
     1
 43
0.0
 10
126.85
 20
-45.3875
 42
0.4142135623730951
 10
126.35
 20
-45.8875
 10
126.35
 20
-58.8875
 42
0.4142135623730951
 10
126.85
 20
-59.3875
 10
139.85
 20
-59.3875
 42
0.4142135623730951
 10
140.35
 20
-58.8875
 10
140.35
 20
-45.8875
 42
0.4142135623730951
 10
139.85
 20
-45.3875
  0
LWPOLYLINE
  5
4CF
330
6F
100
AcDbEntity
  8
0
100
AcDbPolyline
 90
        8
 70
     1
 43
0.0
 10
107.8
 20
-45.3875
 42
0.4142135623730951
 10
107.3
 20
-45.8875
 10
107.3
 20
-58.8875
 42
0.4142135623730951
 10
107.8
 20
-59.3875
 10
120.8
 20
-59.3875
 42
0.4142135623730951
 10
121.3
 20
-58.8875
 10
121.3
 20
-45.8875
 42
0.4142135623730951
 10
120.8
 20
-45.3875
  0
LWPOLYLINE
  5
4D0
330
6F
100
AcDbEntity
  8
0
100
AcDbPolyline
 90
        8
 70
     1
 43
0.0
 10
88.75
 20
-45.3875
 42
0.4142135623730951
 10
88.25000000000001
 20
-45.8875
 10
88.25000000000001
 20
-58.8875
 42
0.4142135623730951
 10
88.75
 20
-59.3875
 10
101.75
 20
-59.3875
 42
0.4142135623730951
 10
102.25
 20
-58.8875
 10
102.25
 20
-45.8875
 42
0.4142135623730951
 10
101.75
 20
-45.3875
  0
LWPOLYLINE
  5
4D1
330
6F
100
AcDbEntity
  8
0
100
AcDbPolyline
 90
        8
 70
     1
 43
0.0
 10
69.7
 20
-45.3875
 42
0.4142135623730951
 10
69.2
 20
-45.8875
 10
69.2
 20
-58.8875
 42
0.4142135623730951
 10
69.7
 20
-59.3875
 10
82.70000000000001
 20
-59.3875
 42
0.4142135623730951
 10
83.2
 20
-58.8875
 10
83.2
 20
-45.8875
 42
0.4142135623730951
 10
82.70000000000001
 20
-45.3875
  0
LWPOLYLINE
  5
4D2
330
6F
100
AcDbEntity
  8
0
100
AcDbPolyline
 90
        8
 70
     1
 43
0.0
 10
50.65
 20
-45.3875
 42
0.4142135623730951
 10
50.15
 20
-45.8875
 10
50.15
 20
-58.8875
 42
0.4142135623730951
 10
50.65
 20
-59.3875
 10
63.65
 20
-59.3875
 42
0.4142135623730951
 10
64.15
 20
-58.8875
 10
64.15
 20
-45.8875
 42
0.4142135623730951
 10
63.65
 20
-45.3875
  0
LWPOLYLINE
  5
4D3
330
6F
100
AcDbEntity
  8
0
100
AcDbPolyline
 90
        8
 70
     1
 43
0.0
 10
31.6
 20
-45.3875
 42
0.4142135623730951
 10
31.1
 20
-45.8875
 10
31.1
 20
-58.8875
 42
0.4142135623730951
 10
31.6
 20
-59.3875
 10
44.59999999999999
 20
-59.3875
 42
0.4142135623730951
 10
45.1
 20
-58.8875
 10
45.1
 20
-45.8875
 42
0.4142135623730951
 10
44.59999999999999
 20
-45.3875
  0
LWPOLYLINE
  5
4D4
330
6F
100
AcDbEntity
  8
0
100
AcDbPolyline
 90
        8
 70
     1
 43
0.0
 10
7.787499999999997
 20
-45.3875
 42
0.4142135623730951
 10
7.287499999999997
 20
-45.8875
 10
7.287499999999997
 20
-58.8875
 42
0.4142135623730951
 10
7.787499999999997
 20
-59.3875
 10
20.7875
 20
-59.3875
 42
0.4142135623730951
 10
21.2875
 20
-58.8875
 10
21.2875
 20
-45.8875
 42
0.4142135623730951
 10
20.7875
 20
-45.3875
  0
LWPOLYLINE
  5
4D5
330
6F
100
AcDbEntity
  8
0
100
AcDbPolyline
 90
        8
 70
     1
 43
0.0
 10
331.6375
 20
-26.3375
 42
0.4142135623730951
 10
331.1375
 20
-26.8375
 10
331.1375
 20
-39.8375
 42
0.4142135623730951
 10
331.6375
 20
-40.3375
 10
344.6375
 20
-40.3375
 42
0.4142135623730951
 10
345.1375
 20
-39.8375
 10
345.1375
 20
-26.8375
 42
0.4142135623730951
 10
344.6375
 20
-26.3375
  0
LWPOLYLINE
  5
4D6
330
6F
100
AcDbEntity
  8
0
100
AcDbPolyline
 90
        8
 70
     1
 43
0.0
 10
312.5875
 20
-26.3375
 42
0.4142135623730951
 10
312.0875
 20
-26.8375
 10
312.0875
 20
-39.8375
 42
0.4142135623730951
 10
312.5875
 20
-40.3375
 10
325.5875
 20
-40.3375
 42
0.4142135623730951
 10
326.0875
 20
-39.8375
 10
326.0875
 20
-26.8375
 42
0.4142135623730951
 10
325.5875
 20
-26.3375
  0
LWPOLYLINE
  5
4D7
330
6F
100
AcDbEntity
  8
0
100
AcDbPolyline
 90
        8
 70
     1
 43
0.0
 10
293.5375
 20
-26.3375
 42
0.4142135623730951
 10
293.0375
 20
-26.8375
 10
293.0375
 20
-39.8375
 42
0.4142135623730951
 10
293.5375
 20
-40.3375
 10
306.5375
 20
-40.3375
 42
0.4142135623730951
 10
307.0375
 20
-39.8375
 10
307.0375
 20
-26.8375
 42
0.4142135623730951
 10
306.5375
 20
-26.3375
  0
LWPOLYLINE
  5
4DA
330
6F
100
AcDbEntity
  8
0
100
AcDbPolyline
 90
        8
 70
     1
 43
0.0
 10
231.625
 20
-26.3375
 42
0.4142135623730951
 10
231.125
 20
-26.8375
 10
231.125
 20
-39.8375
 42
0.4142135623730951
 10
231.625
 20
-40.3375
 10
244.625
 20
-40.3375
 42
0.4142135623730951
 10
245.125
 20
-39.8375
 10
245.125
 20
-26.8375
 42
0.4142135623730951
 10
244.625
 20
-26.3375
  0
LWPOLYLINE
  5
4DB
330
6F
100
AcDbEntity
  8
0
100
AcDbPolyline
 90
        8
 70
     1
 43
0.0
 10
212.575
 20
-26.3375
 42
0.4142135623730951
 10
212.075
 20
-26.8375
 10
212.075
 20
-39.8375
 42
0.4142135623730951
 10
212.575
 20
-40.3375
 10
225.575
 20
-40.3375
 42
0.4142135623730951
 10
226.075
 20
-39.8375
 10
226.075
 20
-26.8375
 42
0.4142135623730951
 10
225.575
 20
-26.3375
  0
LWPOLYLINE
  5
4DC
330
6F
100
AcDbEntity
  8
0
100
AcDbPolyline
 90
        8
 70
     1
 43
0.0
 10
193.525
 20
-26.3375
 42
0.4142135623730951
 10
193.025
 20
-26.8375
 10
193.025
 20
-39.8375
 42
0.4142135623730951
 10
193.525
 20
-40.3375
 10
206.525
 20
-40.3375
 42
0.4142135623730951
 10
207.025
 20
-39.8375
 10
207.025
 20
-26.8375
 42
0.4142135623730951
 10
206.525
 20
-26.3375
  0
LWPOLYLINE
  5
4DD
330
6F
100
AcDbEntity
  8
0
100
AcDbPolyline
 90
        8
 70
     1
 43
0.0
 10
174.475
 20
-26.3375
 42
0.4142135623730951
 10
173.975
 20
-26.8375
 10
173.975
 20
-39.8375
 42
0.4142135623730951
 10
174.475
 20
-40.3375
 10
187.475
 20
-40.3375
 42
0.4142135623730951
 10
187.975
 20
-39.8375
 10
187.975
 20
-26.8375
 42
0.4142135623730951
 10
187.475
 20
-26.3375
  0
LWPOLYLINE
  5
4DE
330
6F
100
AcDbEntity
  8
0
100
AcDbPolyline
 90
        8
 70
     1
 43
0.0
 10
155.425
 20
-26.3375
 42
0.4142135623730951
 10
154.925
 20
-26.8375
 10
154.925
 20
-39.8375
 42
0.4142135623730951
 10
155.425
 20
-40.3375
 10
168.425
 20
-40.3375
 42
0.4142135623730951
 10
168.925
 20
-39.8375
 10
168.925
 20
-26.8375
 42
0.4142135623730951
 10
168.425
 20
-26.3375
  0
LWPOLYLINE
  5
4DF
330
6F
100
AcDbEntity
  8
0
100
AcDbPolyline
 90
        8
 70
     1
 43
0.0
 10
136.375
 20
-26.3375
 42
0.4142135623730951
 10
135.875
 20
-26.8375
 10
135.875
 20
-39.8375
 42
0.4142135623730951
 10
136.375
 20
-40.3375
 10
149.375
 20
-40.3375
 42
0.4142135623730951
 10
149.875
 20
-39.8375
 10
149.875
 20
-26.8375
 42
0.4142135623730951
 10
149.375
 20
-26.3375
  0
LWPOLYLINE
  5
4E0
330
6F
100
AcDbEntity
  8
0
100
AcDbPolyline
 90
        8
 70
     1
 43
0.0
 10
117.325
 20
-26.3375
 42
0.4142135623730951
 10
116.825
 20
-26.8375
 10
116.825
 20
-39.8375
 42
0.4142135623730951
 10
117.325
 20
-40.3375
 10
130.325
 20
-40.3375
 42
0.4142135623730951
 10
130.825
 20
-39.8375
 10
130.825
 20
-26.8375
 42
0.4142135623730951
 10
130.325
 20
-26.3375
  0
LWPOLYLINE
  5
4E1
330
6F
100
AcDbEntity
  8
0
100
AcDbPolyline
 90
        8
 70
     1
 43
0.0
 10
98.275
 20
-26.3375
 42
0.4142135623730951
 10
97.77500000000001
 20
-26.8375
 10
97.77500000000001
 20
-39.8375
 42
0.4142135623730951
 10
98.275
 20
-40.3375
 10
111.275
 20
-40.3375
 42
0.4142135623730951
 10
111.775
 20
-39.8375
 10
111.775
 20
-26.8375
 42
0.4142135623730951
 10
111.275
 20
-26.3375
  0
LWPOLYLINE
  5
4E2
330
6F
100
AcDbEntity
  8
0
100
AcDbPolyline
 90
        8
 70
     1
 43
0.0
 10
79.22499999999998
 20
-26.3375
 42
0.4142135623730951
 10
78.72499999999998
 20
-26.8375
 10
78.72499999999998
 20
-39.8375
 42
0.4142135623730951
 10
79.22499999999998
 20
-40.3375
 10
92.225
 20
-40.3375
 42
0.4142135623730951
 10
92.72499999999999
 20
-39.8375
 10
92.72499999999999
 20
-26.8375
 42
0.4142135623730951
 10
92.225
 20
-26.3375
  0
LWPOLYLINE
  5
4E3
330
6F
100
AcDbEntity
  8
0
100
AcDbPolyline
 90
        8
 70
     1
 43
0.0
 10
60.175
 20
-26.3375
 42
0.4142135623730951
 10
59.675
 20
-26.8375
 10
59.675
 20
-39.8375
 42
0.4142135623730951
 10
60.175
 20
-40.3375
 10
73.17499999999999
 20
-40.3375
 42
0.4142135623730951
 10
73.67499999999998
 20
-39.8375
 10
73.67499999999998
 20
-26.8375
 42
0.4142135623730951
 10
73.17499999999999
 20
-26.3375
  0
LWPOLYLINE
  5
4E4
330
6F
100
AcDbEntity
  8
0
100
AcDbPolyline
 90
        8
 70
     1
 43
0.0
 10
41.12499999999999
 20
-26.3375
 42
0.4142135623730951
 10
40.625
 20
-26.8375
 10
40.625
 20
-39.8375
 42
0.4142135623730951
 10
41.12499999999999
 20
-40.3375
 10
54.125
 20
-40.3375
 42
0.4142135623730951
 10
54.625
 20
-39.8375
 10
54.625
 20
-26.8375
 42
0.4142135623730951
 10
54.125
 20
-26.3375
  0
LWPOLYLINE
  5
4E5
330
6F
100
AcDbEntity
  8
0
100
AcDbPolyline
 90
        8
 70
     1
 43
0.0
 10
22.075
 20
-26.3375
 42
0.4142135623730951
 10
21.575
 20
-26.8375
 10
21.575
 20
-39.8375
 42
0.4142135623730951
 10
22.075
 20
-40.3375
 10
35.075
 20
-40.3375
 42
0.4142135623730951
 10
35.575
 20
-39.8375
 10
35.575
 20
-26.8375
 42
0.4142135623730951
 10
35.075
 20
-26.3375
  0
LWPOLYLINE
  5
4E6
330
6F
100
AcDbEntity
  8
0
100
AcDbPolyline
 90
        8
 70
     1
 43
0.0
 10
3.024999999999999
 20
-26.3375
 42
0.4142135623730951
 10
2.524999999999999
 20
-26.8375
 10
2.524999999999999
 20
-39.8375
 42
0.4142135623730951
 10
3.024999999999999
 20
-40.3375
 10
16.025
 20
-40.3375
 42
0.4142135623730951
 10
16.525
 20
-39.8375
 10
16.525
 20
-26.8375
 42
0.4142135623730951
 10
16.025
 20
-26.3375
  0
LWPOLYLINE
  5
4E7
330
6F
100
AcDbEntity
  8
0
100
AcDbPolyline
 90
        8
 70
     1
 43
0.0
 10
331.6375
 20
-2.525
 42
0.4142135623730951
 10
331.1375
 20
-3.025000000000001
 10
331.1375
 20
-16.025
 42
0.4142135623730951
 10
331.6375
 20
-16.525
 10
344.6375
 20
-16.525
 42
0.4142135623730951
 10
345.1375
 20
-16.025
 10
345.1375
 20
-3.025000000000001
 42
0.4142135623730951
 10
344.6375
 20
-2.525
  0
LWPOLYLINE
  5
4E8
330
6F
100
AcDbEntity
  8
0
100
AcDbPolyline
 90
        8
 70
     1
 43
0.0
 10
312.5875
 20
-2.525
 42
0.4142135623730951
 10
312.0875
 20
-3.025000000000001
 10
312.0875
 20
-16.025
 42
0.4142135623730951
 10
312.5875
 20
-16.525
 10
325.5875
 20
-16.525
 42
0.4142135623730951
 10
326.0875
 20
-16.025
 10
326.0875
 20
-3.025000000000001
 42
0.4142135623730951
 10
325.5875
 20
-2.525
  0
LWPOLYLINE
  5
4F6
330
6F
100
AcDbEntity
  8
0
100
AcDbPolyline
 90
        8
 70
     1
 43
0.0
 10
3.024999999999999
 20
-2.525
 42
0.4142135623730951
 10
2.524999999999999
 20
-3.025000000000001
 10
2.524999999999999
 20
-16.025
 42
0.4142135623730951
 10
3.024999999999999
 20
-16.525
 10
16.025
 20
-16.525
 42
0.4142135623730951
 10
16.525
 20
-16.025
 10
16.525
 20
-3.025000000000001
 42
0.4142135623730951
 10
16.025
 20
-2.525
  0
LWPOLYLINE
  5
6C2
330
6F
100
AcDbEntity
  8
0
  6
Continuous
100
AcDbPolyline
 90
      138
 70
     1
 43
0.0
 10
23.01617965644037
 20
-0.5000000000000007
 10
2.707106781186549
 20
-0.5000000000000006
 42
0.198912367379658
 10
2.353553390593274
 20
-0.6464466094067266
 10
-0.3535533905932726
 20
-3.353553390593295
 42
0.198912367379658
 10
-0.499999999999999
 20
-3.707106781186568
 10
-0.499999999999999
 20
-116.8553932188134
 42
0.198912367379658
 10
-0.3535533905932756
 20
-117.2089466094067
 10
2.353553390593249
 20
-119.9160533905932
 42
0.198912367379658
 10
2.707106781186523
 20
-120.0625
 10
40.12867965644028
 20
-120.0625
 42
-0.1989123673796567
 10
41.18933982822009
 20
-120.5018398282202
 10
42.68566017177983
 20
-121.9981601717798
 42
0.1989123673796567
 10
43.74632034355965
 20
-122.4375
 10
45.625
 20
-122.4375
 42
0.4142135623730951
 10
46.12499999999999
 20
-121.9375
 10
46.12499999999999
 20
-119.2375
 42
-0.9999999999999998
 10
49.125
 20
-119.2375
 10
49.125
 20
-121.9375
 42
0.4142135623730951
 10
49.625
 20
-122.4375
 10
51.50367965644035
 20
-122.4375
 42
0.1989123673796566
 10
52.56433982822017
 20
-121.9981601717798
 10
54.0606601717799
 20
-120.5018398282202
 42
-0.1989123673796567
 10
55.12132034355971
 20
-120.0624999999999
 10
206.8161796564403
 20
-120.0625
 42
-0.198912367379658
 10
207.8768398282201
 20
-120.5018398282202
 10
209.3731601717798
 20
-121.9981601717798
 42
0.198912367379658
 10
210.4338203435597
 20
-122.4375
 10
212.3125
 20
-122.4375
 42
0.4142135623730951
 10
212.8125
 20
-121.9375
 10
212.8125
 20
-119.2375
 42
-0.9999999999999998
 10
215.8125
 20
-119.2375
 10
215.8125
 20
-121.9375
 42
0.4142135623730951
 10
216.3125
 20
-122.4375
 10
218.1911796564403
 20
-122.4375
 42
0.198912367379658
 10
219.2518398282202
 20
-121.9981601717798
 10
220.7481601717799
 20
-120.5018398282202
 42
-0.198912367379658
 10
221.8088203435597
 20
-120.0625
 10
302.0661796564403
 20
-120.0625
 42
-0.198912367379655
 10
303.1268398282201
 20
-120.5018398282202
 10
304.6231601717798
 20
-121.9981601717798
 42
0.1989123673796551
 10
305.6838203435597
 20
-122.4375
 10
307.5625
 20
-122.4375
 42
0.4142135623730951
 10
308.0625
 20
-121.9375
 10
308.0625
 20
-119.2375
 42
-0.9999999999999998
 10
311.0625
 20
-119.2375
 10
311.0625
 20
-121.9375
 42
0.4142135623730951
 10
311.5625
 20
-122.4375
 10
313.4411796564403
 20
-122.4375
 42
0.1989123673796575
 10
314.5018398282202
 20
-121.9981601717798
 10
315.9981601717799
 20
-120.5018398282202
 42
-0.1989123673796575
 10
317.0588203435597
 20
-120.0625
 10
344.9553932188134
 20
-120.0625
 42
0.1989123673796578
 10
345.3089466094067
 20
-119.9160533905933
 10
348.0160533905932
 20
-117.2089466094067
 42
0.198912367379658
 10
348.1624999999998
 20
-116.8553932188134
 10
348.1624999999998
 20
-3.707106781186551
 42
0.198912367379658
 10
348.0160533905932
 20
-3.353553390593276
 10
345.3089466094067
 20
-0.646446609406728
 42
0.198912367379658
 10
344.9553932188134
 20
-0.5000000000000018
 10
338.9338203435596
 20
-0.5000000000000018
 42
-0.19891236737966
 10
337.8731601717798
 20
-0.0606601717798174
 10
333.5518398282201
 20
4.260660171779814
 42
0.19891236737966
 10
332.4911796564403
 20
4.699999999999998
 10
330.6125
 20
4.699999999999998
 42
0.4142135623730951
 10
330.1124999999999
 20
4.200000000000001
 10
330.1124999999999
 20
0.25
 42
-0.9999999999999998
 10
327.1125
 20
0.2499999999999984
 10
327.1125
 20
4.200000000000001
 42
0.4142135623730951
 10
326.6125
 20
4.699999999999998
 10
324.7338203435596
 20
4.699999999999998
 42
0.1989123673796596
 10
323.6731601717798
 20
4.260660171779814
 10
319.3518398282201
 20
-0.0606601717798165
 42
-0.1989123673796596
 10
318.2911796564403
 20
-0.5000000000000018
 10
296.5375
 20
-0.5000000000000016
 42
0.4142135623730951
 10
296.0375
 20
-1.000000000000001
 10
296.0375
 20
-2.025
 42
0.4142135623730951
 10
296.5375
 20
-2.525
 10
306.5375
 20
-2.525
 42
-0.4142135623730951
 10
307.0375
 20
-3.025000000000001
 10
307.0375
 20
-16.025
 42
-0.4142135623730951
 10
306.5375
 20
-16.525
 10
293.5375
 20
-16.525
 42
-0.4142135623730951
 10
293.0375
 20
-16.025
 10
293.0375
 20
-6.075000000000001
 42
0.4142135623730951
 10
292.5375
 20
-5.575000000000001
 10
283.725
 20
-5.575000000000001
 42
0.4142135623730951
 10
283.225
 20
-6.074999999999998
 10
283.225
 20
-16.025
 42
-0.4142135623730951
 10
282.725
 20
-16.525
 10
269.725
 20
-16.525
 42
-0.4142135623730951
 10
269.225
 20
-16.025
 10
269.225
 20
-3.025000000000001
 42
-0.4142135623730951
 10
269.725
 20
-2.525
 10
279.725
 20
-2.525
 42
0.4142135623730951
 10
280.225
 20
-2.025
 10
280.225
 20
-1.000000000000001
 42
0.4142135623730951
 10
279.725
 20
-0.5000000000000016
 10
215.1088203435596
 20
-0.5000000000000015
 42
-0.1989123673796598
 10
214.0481601717798
 20
-0.0606601717798165
 10
209.7268398282202
 20
4.260660171779814
 42
0.1989123673796598
 10
208.6661796564404
 20
4.699999999999998
 10
206.7875
 20
4.699999999999998
 42
0.4142135623730951
 10
206.2875
 20
4.199999999999998
 10
206.2875
 20
0.2499999999999991
 42
-0.9999999999999998
 10
203.2875
 20
0.2499999999999991
 10
203.2875
 20
4.199999999999998
 42
0.4142135623730951
 10
202.7875
 20
4.699999999999998
 10
200.9088203435596
 20
4.699999999999998
 42
0.1989123673796596
 10
199.8481601717798
 20
4.260660171779814
 10
195.5268398282202
 20
-0.0606601717798172
 42
-0.1989123673796594
 10
194.4661796564403
 20
-0.5000000000000011
 10
129.3838203435596
 20
-0.5000000000000011
 42
-0.1989123673796589
 10
128.3231601717798
 20
-0.0606601717798165
 10
124.0018398282202
 20
4.260660171779814
 42
0.198912367379659
 10
122.9411796564404
 20
4.699999999999998
 10
121.0625
 20
4.699999999999998
 42
0.4142135623730951
 10
120.5625
 20
4.2
 10
120.5625
 20
0.2499999999999992
 42
-0.9999999999999998
 10
117.5625
 20
0.2499999999999992
 10
117.5625
 20
4.2
 42
0.4142135623730951
 10
117.0625
 20
4.699999999999998
 10
115.1838203435596
 20
4.699999999999998
 42
0.1989123673796579
 10
114.1231601717798
 20
4.260660171779814
 10
109.8018398282202
 20
-0.0606601717798165
 42
-0.1989123673796578
 10
108.7411796564403
 20
-0.5000000000000011
 10
43.65882034355965
 20
-0.5000000000000007
 42
-0.1989123673796598
 10
42.59816017177981
 20
-0.0606601717798148
 10
38.27683982822018
 20
4.260660171779814
 42
0.1989123673796598
 10
37.21617965644038
 20
4.699999999999998
 10
35.33750000000001
 20
4.699999999999998
 42
0.4142135623730951
 10
34.83750000000001
 20
4.199999999999998
 10
34.83750000000001
 20
0.2499999999999991
 42
-0.9999999999999998
 10
31.83750000000001
 20
0.2499999999999993
 10
31.83750000000001
 20
4.199999999999998
 42
0.4142135623730951
 10
31.33750000000001
 20
4.699999999999998
 10
29.45882034355964
 20
4.699999999999998
 42
0.1989123673796596
 10
28.39816017177981
 20
4.260660171779814
 10
24.07683982822019
 20
-0.0606601717798165
 42
-0.1989123673796594
  0
LWPOLYLINE
  5
89E
330
6F
100
AcDbEntity
  8
0
100
AcDbPolyline
 90
        8
 70
     1
 43
0.0
 10
245.9125000000001
 20
-2.524999999999915
 42
0.4142135623730951
 10
245.4125000000001
 20
-3.024999999999915
 10
245.4125000000001
 20
-16.025
 42
0.4142135623730951
 10
245.9125000000001
 20
-16.525
 10
258.9125
 20
-16.525
 42
0.4142135623730951
 10
259.4125
 20
-16.025
 10
259.4125
 20
-3.024999999999915
 42
0.4142135623730951
 10
258.9125
 20
-2.524999999999915
  0
LWPOLYLINE
  5
89F
330
6F
100
AcDbEntity
  8
0
100
AcDbPolyline
 90
        8
 70
     1
 43
0.0
 10
226.8625000000001
 20
-2.524999999999915
 42
0.4142135623730951
 10
226.3625000000001
 20
-3.024999999999915
 10
226.3625000000001
 20
-16.025
 42
0.4142135623730951
 10
226.8625000000001
 20
-16.525
 10
239.8625
 20
-16.525
 42
0.4142135623730951
 10
240.3625
 20
-16.025
 10
240.3625
 20
-3.024999999999915
 42
0.4142135623730951
 10
239.8625
 20
-2.524999999999915
  0
LWPOLYLINE
  5
8A0
330
6F
100
AcDbEntity
  8
0
100
AcDbPolyline
 90
        8
 70
     1
 43
0.0
 10
207.8125
 20
-2.524999999999915
 42
0.4142135623730951
 10
207.3125
 20
-3.024999999999915
 10
207.3125
 20
-16.025
 42
0.4142135623730951
 10
207.8125
 20
-16.525
 10
220.8125
 20
-16.525
 42
0.4142135623730951
 10
221.3125
 20
-16.025
 10
221.3125
 20
-3.024999999999915
 42
0.4142135623730951
 10
220.8125
 20
-2.524999999999915
  0
LWPOLYLINE
  5
8A1
330
6F
100
AcDbEntity
  8
0
100
AcDbPolyline
 90
        8
 70
     1
 43
0.0
 10
188.7625
 20
-2.524999999999915
 42
0.4142135623730951
 10
188.2625
 20
-3.024999999999915
 10
188.2625
 20
-16.025
 42
0.4142135623730951
 10
188.7625
 20
-16.525
 10
201.7625
 20
-16.525
 42
0.4142135623730951
 10
202.2625
 20
-16.025
 10
202.2625
 20
-3.024999999999915
 42
0.4142135623730951
 10
201.7625
 20
-2.524999999999915
  0
LWPOLYLINE
  5
8A2
330
6F
100
AcDbEntity
  8
0
100
AcDbPolyline
 90
        8
 70
     1
 43
0.0
 10
107.8
 20
-2.524999999999915
 42
0.4142135623730951
 10
107.3
 20
-3.024999999999915
 10
107.3
 20
-16.025
 42
0.4142135623730951
 10
107.8
 20
-16.525
 10
120.8
 20
-16.525
 42
0.4142135623730951
 10
121.3
 20
-16.025
 10
121.3
 20
-3.024999999999915
 42
0.4142135623730951
 10
120.8
 20
-2.524999999999915
  0
LWPOLYLINE
  5
8A3
330
6F
100
AcDbEntity
  8
0
100
AcDbPolyline
 90
        8
 70
     1
 43
0.0
 10
83.98750000000006
 20
-2.524999999999915
 42
0.4142135623730951
 10
83.48750000000004
 20
-3.024999999999915
 10
83.48750000000004
 20
-16.025
 42
0.4142135623730951
 10
83.98750000000006
 20
-16.525
 10
96.98750000000007
 20
-16.525
 42
0.4142135623730951
 10
97.48750000000004
 20
-16.025
 10
97.48750000000004
 20
-3.024999999999915
 42
0.4142135623730951
 10
96.98750000000007
 20
-2.524999999999915
  0
LWPOLYLINE
  5
8A4
330
6F
100
AcDbEntity
  8
0
100
AcDbPolyline
 90
        8
 70
     1
 43
0.0
 10
64.93750000000003
 20
-2.524999999999915
 42
0.4142135623730951
 10
64.43750000000003
 20
-3.024999999999915
 10
64.43750000000003
 20
-16.025
 42
0.4142135623730951
 10
64.93750000000003
 20
-16.525
 10
77.93750000000002
 20
-16.525
 42
0.4142135623730951
 10
78.43750000000003
 20
-16.025
 10
78.43750000000003
 20
-3.024999999999915
 42
0.4142135623730951
 10
77.93750000000002
 20
-2.524999999999915
  0
LWPOLYLINE
  5
8A5
330
6F
100
AcDbEntity
  8
0
100
AcDbPolyline
 90
        8
 70
     1
 43
0.0
 10
45.88750000000002
 20
-2.524999999999915
 42
0.4142135623730951
 10
45.38750000000002
 20
-3.024999999999915
 10
45.38750000000002
 20
-16.025
 42
0.4142135623730951
 10
45.88750000000002
 20
-16.525
 10
58.88750000000002
 20
-16.525
 42
0.4142135623730951
 10
59.38750000000002
 20
-16.025
 10
59.38750000000002
 20
-3.024999999999915
 42
0.4142135623730951
 10
58.88750000000002
 20
-2.524999999999915
  0
LWPOLYLINE
  5
8A6
330
6F
100
AcDbEntity
  8
0
100
AcDbPolyline
 90
        8
 70
     1
 43
0.0
 10
26.83750000000002
 20
-2.524999999999915
 42
0.4142135623730951
 10
26.33750000000002
 20
-3.024999999999915
 10
26.33750000000002
 20
-16.025
 42
0.4142135623730951
 10
26.83750000000002
 20
-16.525
 10
39.83750000000001
 20
-16.525
 42
0.4142135623730951
 10
40.3375
 20
-16.025
 10
40.3375
 20
-3.024999999999915
 42
0.4142135623730951
 10
39.83750000000001
 20
-2.524999999999915
  0
LWPOLYLINE
  5
8A7
330
6F
100
AcDbEntity
  8
0
100
AcDbPolyline
 90
        8
 70
     1
 43
0.0
 10
264.9625
 20
-102.5375
 42
0.4142135623730951
 10
264.4625
 20
-103.0375
 10
264.4625
 20
-116.0375
 42
0.4142135623730951
 10
264.9625
 20
-116.5375
 10
277.9624999999999
 20
-116.5375
 42
0.4142135623730951
 10
278.4624999999999
 20
-116.0375
 10
278.4624999999999
 20
-103.0375
 42
0.4142135623730951
 10
277.9624999999999
 20
-102.5375
  0
LWPOLYLINE
  5
8A8
330
6F
100
AcDbEntity
  8
0
100
AcDbPolyline
 90
        8
 70
     1
 43
0.0
 10
241.1500000000001
 20
-102.5375
 42
0.4142135623730951
 10
240.6500000000001
 20
-103.0375
 10
240.6500000000001
 20
-116.0375
 42
0.4142135623730951
 10
241.1500000000001
 20
-116.5375
 10
254.15
 20
-116.5375
 42
0.4142135623730951
 10
254.6500000000001
 20
-116.0375
 10
254.6500000000001
 20
-103.0375
 42
0.4142135623730951
 10
254.15
 20
-102.5375
  0
LWPOLYLINE
  5
8A9
330
6F
100
AcDbEntity
  8
0
100
AcDbPolyline
 90
        8
 70
     1
 43
0.0
 10
217.3375
 20
-102.5375
 42
0.4142135623730951
 10
216.8375000000001
 20
-103.0375
 10
216.8375000000001
 20
-116.0375
 42
0.4142135623730951
 10
217.3375
 20
-116.5375
 10
230.3375000000001
 20
-116.5375
 42
0.4142135623730951
 10
230.8375000000001
 20
-116.0375
 10
230.8375000000001
 20
-103.0375
 42
0.4142135623730951
 10
230.3375000000001
 20
-102.5375
  0
LWPOLYLINE
  5
8AA
330
6F
100
AcDbEntity
  8
0
100
AcDbPolyline
 90
        8
 70
     1
 43
0.0
 10
55.41250000000001
 20
-102.5375
 42
0.4142135623730951
 10
54.9125
 20
-103.0375
 10
54.9125
 20
-116.0375
 42
0.4142135623730951
 10
55.41250000000001
 20
-116.5375
 10
68.41249999999999
 20
-116.5375
 42
0.4142135623730951
 10
68.91249999999999
 20
-116.0375
 10
68.91249999999999
 20
-103.0375
 42
0.4142135623730951
 10
68.41249999999999
 20
-102.5375
  0
LWPOLYLINE
  5
8AB
330
6F
100
AcDbEntity
  8
0
100
AcDbPolyline
 90
        8
 70
     1
 43
0.0
 10
31.6
 20
-102.5375
 42
0.4142135623730951
 10
31.1
 20
-103.0375
 10
31.1
 20
-116.0375
 42
0.4142135623730951
 10
31.6
 20
-116.5375
 10
44.59999999999999
 20
-116.5375
 42
0.4142135623730951
 10
45.1
 20
-116.0375
 10
45.1
 20
-103.0375
 42
0.4142135623730951
 10
44.59999999999999
 20
-102.5375
  0
LWPOLYLINE
  5
8AC
330
6F
100
AcDbEntity
  8
0
100
AcDbPolyline
 90
        8
 70
     1
 43
0.0
 10
7.787500000000003
 20
-102.5375
 42
0.4142135623730951
 10
7.287500000000003
 20
-103.0375
 10
7.287500000000003
 20
-116.0375
 42
0.4142135623730951
 10
7.787500000000003
 20
-116.5375
 10
20.78750000000001
 20
-116.5375
 42
0.4142135623730951
 10
21.28750000000001
 20
-116.0375
 10
21.28750000000001
 20
-103.0375
 42
0.4142135623730951
 10
20.78750000000001
 20
-102.5375
  0
LWPOLYLINE
  5
8AD
330
6F
100
AcDbEntity
  8
0
100
AcDbPolyline
 90
        8
 70
     1
 43
0.0
 10
136.3749999999999
 20
-116.5375
 42
-0.4142135623730951
 10
135.8749999999999
 20
-116.0375
 10
135.8749999999999
 20
-103.0375
 42
-0.4142135623730951
 10
136.3749999999999
 20
-102.5375
 10
149.3749999999999
 20
-102.5375
 42
-0.4142135623730951
 10
149.875
 20
-103.0375
 10
149.875
 20
-116.0375
 42
-0.4142135623730951
 10
149.3749999999999
 20
-116.5375
  0
LWPOLYLINE
  5
8AE
330
6F
100
AcDbEntity
  8
0
  6
Continuous
100
AcDbPolyline
 90
        8
 70
     1
 43
0.0
 10
196.5249999999999
 20
-118.0375
 10
196.5249999999999
 20
-101.0375
 42
-0.4142135623730951
 10
197.025
 20
-100.5375
 10
203.025
 20
-100.5375
 42
-0.4142135623730951
 10
203.525
 20
-101.0375
 10
203.525
 20
-118.0375
 42
-0.4142135623730951
 10
203.025
 20
-118.5375
 10
197.025
 20
-118.5375
 42
-0.4142135623730951
  0
LWPOLYLINE
  5
8AF
330
6F
100
AcDbEntity
  8
0
  6
Continuous
100
AcDbPolyline
 90
        8
 70
     1
 43
0.0
 10
89.22499999999994
 20
-118.0375
 10
89.22499999999994
 20
-101.0375
 42
0.4142135623730951
 10
88.72499999999993
 20
-100.5375
 10
82.72499999999993
 20
-100.5375
 42
0.4142135623730951
 10
82.22499999999994
 20
-101.0375
 10
82.22499999999994
 20
-118.0375
 42
0.4142135623730951
 10
82.72499999999993
 20
-118.5375
 10
88.72499999999993
 20
-118.5375
 42
0.4142135623730951
  0
LWPOLYLINE
  5
8B0
330
6F
100
AcDbEntity
  8
0
100
AcDbPolyline
 90
        8
 70
     1
 43
0.0
 10
268.49425
 20
-84.51249999999999
 42
0.4142135623730951
 10
267.99425
 20
-85.01249999999998
 10
267.99425
 20
-99.01250000000004
 42
0.4142135623730951
 10
268.49425
 20
-99.51250000000005
 10
274.49425
 20
-99.51250000000005
 42
0.4142135623730951
 10
274.9942499999999
 20
-99.01250000000004
 10
274.9942499999999
 20
-85.01249999999998
 42
0.4142135623730951
 10
274.49425
 20
-84.51249999999999
  0
LWPOLYLINE
  5
8B1
330
6F
100
AcDbEntity
  8
0
100
AcDbPolyline
 90
        8
 70
     1
 43
0.0
 10
244.61825
 20
-84.51249999999999
 42
0.4142135623730951
 10
244.11825
 20
-85.01249999999998
 10
244.11825
 20
-99.01250000000004
 42
0.4142135623730951
 10
244.61825
 20
-99.51250000000005
 10
250.61825
 20
-99.51250000000005
 42
0.4142135623730951
 10
251.11825
 20
-99.01250000000004
 10
251.11825
 20
-85.01249999999998
 42
0.4142135623730951
 10
250.61825
 20
-84.51249999999999
  0
LWPOLYLINE
  5
8B2
330
6F
100
AcDbEntity
  8
0
100
AcDbPolyline
 90
        8
 70
     1
 43
0.0
 10
253.0562500000001
 20
-83.51249999999998
 42
0.4142135623730951
 10
252.5562500000001
 20
-84.01249999999999
 10
252.5562500000001
 20
-97.01250000000005
 42
0.4142135623730951
 10
253.0562500000001
 20
-97.51250000000005
 10
266.05625
 20
-97.51250000000005
 42
0.4142135623730951
 10
266.55625
 20
-97.01250000000005
 10
266.55625
 20
-84.01249999999999
 42
0.4142135623730951
 10
266.05625
 20
-83.51249999999998
  0
LWPOLYLINE
  5
8B3
330
6F
100
AcDbEntity
  8
0
100
AcDbPolyline
 90
        8
 70
     1
 43
0.0
 10
275.6379999999999
 20
-27.36250000000001
 42
0.4142135623730951
 10
275.1379999999999
 20
-27.86250000000001
 10
275.1379999999999
 20
-41.8625
 42
0.4142135623730951
 10
275.6379999999999
 20
-42.3625
 10
281.6379999999999
 20
-42.3625
 42
0.4142135623730951
 10
282.1379999999999
 20
-41.8625
 10
282.1379999999999
 20
-27.86250000000001
 42
0.4142135623730951
 10
281.6379999999999
 20
-27.36250000000001
  0
LWPOLYLINE
  5
8B4
330
6F
100
AcDbEntity
  8
0
100
AcDbPolyline
 90
        8
 70
     1
 43
0.0
 10
251.762
 20
-27.36250000000001
 42
0.4142135623730951
 10
251.262
 20
-27.86250000000001
 10
251.262
 20
-41.8625
 42
0.4142135623730951
 10
251.762
 20
-42.3625
 10
257.762
 20
-42.3625
 42
0.4142135623730951
 10
258.2619999999999
 20
-41.8625
 10
258.2619999999999
 20
-27.86250000000001
 42
0.4142135623730951
 10
257.762
 20
-27.36250000000001
  0
LWPOLYLINE
  5
8B5
330
6F
100
AcDbEntity
  8
0
100
AcDbPolyline
 90
        8
 70
     1
 43
0.0
 10
260.1999999999999
 20
-26.36249999999992
 42
0.4142135623730951
 10
259.6999999999999
 20
-26.86249999999992
 10
259.6999999999999
 20
-39.8625
 42
0.4142135623730951
 10
260.1999999999999
 20
-40.3625
 10
273.1999999999999
 20
-40.3625
 42
0.4142135623730951
 10
273.6999999999999
 20
-39.8625
 10
273.6999999999999
 20
-26.86249999999992
 42
0.4142135623730951
 10
273.1999999999999
 20
-26.36249999999992
  0
LWPOLYLINE
  5
8B6
330
6F
100
AcDbEntity
  8
0
100
AcDbPolyline
 90
        8
 70
     1
 43
0.0
 10
5.406250000000003
 20
-64.4375
 42
0.4142135623730951
 10
4.906250000000003
 20
-64.9375
 10
4.906250000000003
 20
-77.9375
 42
0.4142135623730951
 10
5.406250000000003
 20
-78.4375
 10
18.40625
 20
-78.4375
 42
0.4142135623730951
 10
18.90625
 20
-77.9375
 10
18.90625
 20
-64.9375
 42
0.4142135623730951
 10
18.40625
 20
-64.4375
  0
LWPOLYLINE
  5
8B7
330
6F
100
AcDbEntity
  8
0
100
AcDbPolyline
 90
        8
 70
     1
 43
0.0
 10
164.95
 20
-2.524999999999915
 42
0.4142135623730951
 10
164.45
 20
-3.024999999999915
 10
164.45
 20
-16.025
 42
0.4142135623730951
 10
164.95
 20
-16.525
 10
177.95
 20
-16.525
 42
0.4142135623730951
 10
178.45
 20
-16.025
 10
178.45
 20
-3.024999999999915
 42
0.4142135623730951
 10
177.95
 20
-2.524999999999915
  0
LWPOLYLINE
  5
8B8
330
6F
100
AcDbEntity
  8
0
100
AcDbPolyline
 90
        8
 70
     1
 43
0.0
 10
145.9
 20
-2.524999999999915
 42
0.4142135623730951
 10
145.4
 20
-3.024999999999915
 10
145.4
 20
-16.025
 42
0.4142135623730951
 10
145.9
 20
-16.525
 10
158.9
 20
-16.525
 42
0.4142135623730951
 10
159.4000000000001
 20
-16.025
 10
159.4000000000001
 20
-3.024999999999915
 42
0.4142135623730951
 10
158.9
 20
-2.524999999999915
  0
LWPOLYLINE
  5
8B9
330
6F
100
AcDbEntity
  8
0
100
AcDbPolyline
 90
        8
 70
     1
 43
0.0
 10
126.85
 20
-2.524999999999915
 42
0.4142135623730951
 10
126.35
 20
-3.024999999999915
 10
126.35
 20
-16.025
 42
0.4142135623730951
 10
126.85
 20
-16.525
 10
139.85
 20
-16.525
 42
0.4142135623730951
 10
140.35
 20
-16.025
 10
140.35
 20
-3.024999999999915
 42
0.4142135623730951
 10
139.85
 20
-2.524999999999915
  0
ENDSEC
  0
SECTION
  2
OBJECTS
  0
DICTIONARY
  5
C
330
0
100
AcDbDictionary
281
     1
  3
ACAD_CIP_PREVIOUS_PRODUCT_INFO
350
433
  3
ACAD_COLOR
350
62
  3
ACAD_DETAILVIEWSTYLE
350
69
  3
ACAD_GROUP
350
D
  3
ACAD_LAST_SAVED_VERSION_INFO
350
4F7
  3
ACAD_LAYOUT
350
61
  3
ACAD_MATERIAL
350
10
  3
ACAD_MLEADERSTYLE
350
65
  3
ACAD_MLINESTYLE
350
5E
  3
ACAD_PLOTSETTINGS
350
60
  3
ACAD_PLOTSTYLENAME
350
E
  3
ACAD_SCALELIST
350
42
  3
ACAD_SECTIONVIEWSTYLE
350
67
  3
ACAD_TABLESTYLE
350
63
  3
ACAD_VISUALSTYLE
350
29
  3
ACDB_RECOMPOSE_DATA
350
8BB
  3
AcDbVariableDictionary
350
504
  0
DICTIONARY
  5
6C6
330
2
100
AcDbDictionary
280
     1
281
     1
  3
ACAD_LAYERSTATES
360
6C7
  0
DICTIONARY
  5
4F8
330
54
100
AcDbDictionary
280
     1
281
     1
  3
ADSK_XREC_LAYER_RECONCILED
360
4F9
  0
DICTIONARY
  5
439
330
6F
100
AcDbDictionary
280
     1
281
     1
  3
ACAD_SORTENTS
360
43A
  0
DICTIONARY
  5
53D
330
52D
100
AcDbDictionary
280
     1
281
     1
  3
ACAD_SORTENTS
360
53E
  0
DICTIONARY
  5
784
330
77A
100
AcDbDictionary
280
     1
281
     1
  3
ACAD_SORTENTS
360
785
  0
DICTIONARY
  5
7AC
330
7AA
100
AcDbDictionary
280
     1
281
     1
  3
ACAD_SORTENTS
360
7AD
  0
DICTIONARY
  5
7C4
330
7C2
100
AcDbDictionary
280
     1
281
     1
  3
ACAD_SORTENTS
360
7C5
  0
DICTIONARY
  5
7D6
330
7D4
100
AcDbDictionary
280
     1
281
     1
  3
ACAD_SORTENTS
360
7D7
  0
DICTIONARY
  5
814
330
812
100
AcDbDictionary
280
     1
281
     1
  3
ACAD_SORTENTS
360
815
  0
XRECORD
  5
433
102
{ACAD_REACTORS
330
C
102
}
330
C
100
AcDbXrecord
280
     1
300
ACD
300
2024
300

  0
DICTIONARY
  5
62
102
{ACAD_REACTORS
330
C
102
}
330
C
100
AcDbDictionary
281
     1
  0
DICTIONARY
  5
69
102
{ACAD_REACTORS
330
C
102
}
330
C
100
AcDbDictionary
281
     1
  3
Imperial24
350
6A
  0
DICTIONARY
  5
D
102
{ACAD_REACTORS
330
C
102
}
330
C
100
AcDbDictionary
281
     1
  0
XRECORD
  5
4F7
102
{ACAD_REACTORS
330
C
102
}
330
C
100
AcDbXrecord
280
     1
300
{E8B8A990-69D6-3D4B-A4B1-C4B8BF1B5E41}
301
{FCE4CB32-4D8F-CB4A-97A1-2BAE66DE4A5F}
302
{E8B8A990-69D6-3D4B-A4B1-C4B8BF1B5E41}
303
D:\bormd\fuck jane plate\jane-f13-ansi-full-tsangan.dxf
  0
DICTIONARY
  5
61
102
{ACAD_REACTORS
330
C
102
}
330
C
100
AcDbDictionary
281
     1
  3
Layout1
350
6E
  3
Model
350
72
  0
DICTIONARY
  5
10
102
{ACAD_REACTORS
330
C
102
}
330
C
100
AcDbDictionary
281
     1
  3
ByBlock
350
19
  3
ByLayer
350
11
  3
Global
350
21
  0
DICTIONARY
  5
65
102
{ACAD_REACTORS
330
C
102
}
330
C
100
AcDbDictionary
281
     1
  3
Standard
350
66
  0
DICTIONARY
  5
5E
102
{ACAD_REACTORS
330
C
102
}
330
C
100
AcDbDictionary
281
     1
  3
Standard
350
5F
  0
DICTIONARY
  5
60
102
{ACAD_REACTORS
330
C
102
}
330
C
100
AcDbDictionary
281
     1
  0
ACDBDICTIONARYWDFLT
  5
E
102
{ACAD_REACTORS
330
C
102
}
330
C
100
AcDbDictionary
281
     1
  3
Normal
350
F
100
AcDbDictionaryWithDefault
340
F
  0
DICTIONARY
  5
42
102
{ACAD_REACTORS
330
C
102
}
330
C
100
AcDbDictionary
281
     1
  3
A0
350
43
  3
A1
350
44
  3
A2
350
45
  3
A3
350
46
  3
A4
350
47
  3
A5
350
48
  3
A6
350
49
  3
A7
350
4A
  3
A8
350
4B
  3
A9
350
4C
  3
B0
350
4D
  3
B1
350
4E
  3
B2
350
4F
  3
B3
350
50
  3
B4
350
51
  3
B5
350
52
  3
B6
350
53
  0
DICTIONARY
  5
67
102
{ACAD_REACTORS
330
C
102
}
330
C
100
AcDbDictionary
281
     1
  3
Imperial24
350
68
  0
DICTIONARY
  5
63
102
{ACAD_REACTORS
330
C
102
}
330
C
100
AcDbDictionary
281
     1
  3
Standard
350
64
  0
DICTIONARY
  5
29
102
{ACAD_REACTORS
330
C
102
}
330
C
100
AcDbDictionary
281
     1
  3
2dWireframe
350
2F
  3
Basic
350
2E
  3
Brighten
350
35
  3
ColorChange
350
39
  3
Conceptual
350
32
  3
Dim
350
34
  3
EdgeColorOff
350
41
  3
Facepattern
350
38
  3
Flat
350
2A
  3
FlatWithEdges
350
2B
  3
Gouraud
350
2C
  3
GouraudWithEdges
350
2D
  3
Hidden
350
31
  3
JitterOff
350
3F
  3
Linepattern
350
37
  3
OverhangOff
350
40
  3
Realistic
350
33
  3
Shaded
350
3E
  3
Shaded with edges
350
3D
  3
Shades of Gray
350
3A
  3
Sketchy
350
3B
  3
Thicken
350
36
  3
Wireframe
350
30
  3
X-Ray
350
3C
  0
XRECORD
  5
8BB
102
{ACAD_REACTORS
330
C
102
}
330
C
100
AcDbXrecord
280
     1
 90
        1
330
64
  0
DICTIONARY
  5
504
102
{ACAD_REACTORS
330
C
102
}
330
C
100
AcDbDictionary
281
     1
  3
CANNOSCALE
350
50A
  3
CMLEADERSTYLE
350
506
  3
CTABLESTYLE
350
505
  3
CVIEWDETAILSTYLE
350
507
  3
CVIEWSECTIONSTYLE
350
508
  3
LAYEREVAL
350
50C
  3
LAYERNOTIFY
350
50D
  3
LIGHTINGUNITS
350
50B
  3
MSLTSCALE
350
509
  0
DICTIONARY
  5
6C7
102
{ACAD_REACTORS
330
6C6
102
}
330
6C6
100
AcDbDictionary
281
     1
  0
XRECORD
  5
4F9
102
{ACAD_REACTORS
330
4F8
102
}
330
4F8
100
AcDbXrecord
280
     1
290
     1
  0
SORTENTSTABLE
  5
43A
102
{ACAD_REACTORS
330
439
102
}
330
439
100
AcDbSortentsTable
330
6F
331
4F6
  5
554
  0
SORTENTSTABLE
  5
53E
102
{ACAD_REACTORS
330
53D
102
}
330
53D
100
AcDbSortentsTable
330
52D
  0
SORTENTSTABLE
  5
785
102
{ACAD_REACTORS
330
784
102
}
330
784
100
AcDbSortentsTable
330
77A
  0
SORTENTSTABLE
  5
7AD
102
{ACAD_REACTORS
330
7AC
102
}
330
7AC
100
AcDbSortentsTable
330
7AA
  0
SORTENTSTABLE
  5
7C5
102
{ACAD_REACTORS
330
7C4
102
}
330
7C4
100
AcDbSortentsTable
330
7C2
  0
SORTENTSTABLE
  5
7D7
102
{ACAD_REACTORS
330
7D6
102
}
330
7D6
100
AcDbSortentsTable
330
7D4
  0
SORTENTSTABLE
  5
815
102
{ACAD_REACTORS
330
814
102
}
330
814
100
AcDbSortentsTable
330
812
  0
ACDBDETAILVIEWSTYLE
  5
6A
102
{ACAD_REACTORS
330
69
102
}
330
69
100
AcDbModelDocViewStyle
 70
     0
  3
Imperial24
290
     0
300
Imperial24
 90
        0
100
AcDbDetailViewStyle
 70
     0
 71
     0
 90
        3
 71
     1
340
55
 62
   256
 40
0.24
340
0
 62
   256
 40
0.24
300

 40
0.36
280
     3
 71
     2
340
5C
 90
       25
 62
   256
 71
     3
340
55
 62
   256
 40
0.24
 90
        1
 40
0.75
 90
        1
300
%<\AcVar ViewType \f "%tc1">% %<\AcVar ViewDetailId>%\PSCALE %<\AcVar ViewScale \f "%sn">%
 71
     4
340
5C
 90
       25
 62
   256
340
5C
 90
       25
 62
   256
280
     0
  0
LAYOUT
  5
6E
102
{ACAD_REACTORS
330
61
102
}
330
61
100
AcDbPlotSettings
  1

  2
Microsoft Print to PDF
  4

  6

 40
0.0
 41
0.0
 42
0.0
 43
0.0
 44
0.0
 45
0.0
 46
0.0
 47
0.0
 48
0.0
 49
0.0
140
0.0
141
0.0
142
1.0
143
1.0
 70
   688
 72
     0
 73
     0
 74
     5
  7

 75
    16
147
1.0
 76
     0
 77
     2
 78
   300
148
0.0
149
0.0
100
AcDbLayout
  1
Layout1
 70
     1
 71
     1
 10
0.0
 20
0.0
 11
12.0
 21
9.0
 12
0.0
 22
0.0
 32
0.0
 14
1.000000000000000E+20
 24
1.000000000000000E+20
 34
1.000000000000000E+20
 15
-1.000000000000000E+20
 25
-1.000000000000000E+20
 35
-1.000000000000000E+20
146
0.0
 13
0.0
 23
0.0
 33
0.0
 16
1.0
 26
0.0
 36
0.0
 17
0.0
 27
1.0
 37
0.0
 76
     0
330
6B
  0
LAYOUT
  5
72
102
{ACAD_REACTORS
330
61
102
}
330
61
100
AcDbPlotSettings
  1

  2
Microsoft Print to PDF
  4

  6

 40
0.0
 41
0.0
 42
0.0
 43
0.0
 44
0.0
 45
0.0
 46
0.0
 47
0.0
 48
0.0
 49
0.0
140
0.0
141
0.0
142
1.0
143
1.0
 70
  1712
 72
     0
 73
     0
 74
     0
  7

 75
     0
147
1.0
 76
     0
 77
     2
 78
   300
148
0.0
149
0.0
100
AcDbLayout
  1
Model
 70
     1
 71
     0
 10
0.0
 20
0.0
 11
12.0
 21
9.0
 12
0.0
 22
0.0
 32
0.0
 14
0.0
 24
0.0
 34
0.0
 15
0.0
 25
0.0
 35
0.0
146
0.0
 13
0.0
 23
0.0
 33
0.0
 16
1.0
 26
0.0
 36
0.0
 17
0.0
 27
1.0
 37
0.0
 76
     0
330
6F
331
74
  0
MATERIAL
  5
19
102
{ACAD_XDICTIONARY
360
1A
102
}
102
{ACAD_REACTORS
330
10
102
}
330
10
100
AcDbMaterial
  1
ByBlock
 72
     0
 43
0.0208333333333333
 43
0.0
 43
0.0
 43
0.0
 43
0.0
 43
0.0208333333333333
 43
0.0
 43
0.0
 43
0.0
 43
0.0
 43
1.0
 43
0.0
 43
0.0
 43
0.0
 43
0.0
 43
1.0
 77
     0
 47
0.0208333333333333
 47
0.0
 47
0.0
 47
0.0
 47
0.0
 47
0.0208333333333333
 47
0.0
 47
0.0
 47
0.0
 47
0.0
 47
1.0
 47
0.0
 47
0.0
 47
0.0
 47
0.0
 47
1.0
171
     0
 49
0.0208333333333333
 49
0.0
 49
0.0
 49
0.0
 49
0.0
 49
0.0208333333333333
 49
0.0
 49
0.0
 49
0.0
 49
0.0
 49
1.0
 49
0.0
 49
0.0
 49
0.0
 49
0.0
 49
1.0
175
     0
142
0.0208333333333333
142
0.0
142
0.0
142
0.0
142
0.0
142
0.0208333333333333
142
0.0
142
0.0
142
0.0
142
0.0
142
1.0
142
0.0
142
0.0
142
0.0
142
0.0
142
1.0
179
     0
144
0.0208333333333333
144
0.0
144
0.0
144
0.0
144
0.0
144
0.0208333333333333
144
0.0
144
0.0
144
0.0
144
0.0
144
1.0
144
0.0
144
0.0
144
0.0
144
0.0
144
1.0
147
0.0208333333333333
147
0.0
147
0.0
147
0.0
147
0.0
147
0.0208333333333333
147
0.0
147
0.0
147
0.0
147
0.0
147
1.0
147
0.0
147
0.0
147
0.0
147
0.0
147
1.0
  0
MATERIAL
  5
11
102
{ACAD_XDICTIONARY
360
12
102
}
102
{ACAD_REACTORS
330
10
102
}
330
10
100
AcDbMaterial
  1
ByLayer
 72
     0
 43
0.0208333333333333
 43
0.0
 43
0.0
 43
0.0
 43
0.0
 43
0.0208333333333333
 43
0.0
 43
0.0
 43
0.0
 43
0.0
 43
1.0
 43
0.0
 43
0.0
 43
0.0
 43
0.0
 43
1.0
 77
     0
 47
0.0208333333333333
 47
0.0
 47
0.0
 47
0.0
 47
0.0
 47
0.0208333333333333
 47
0.0
 47
0.0
 47
0.0
 47
0.0
 47
1.0
 47
0.0
 47
0.0
 47
0.0
 47
0.0
 47
1.0
171
     0
 49
0.0208333333333333
 49
0.0
 49
0.0
 49
0.0
 49
0.0
 49
0.0208333333333333
 49
0.0
 49
0.0
 49
0.0
 49
0.0
 49
1.0
 49
0.0
 49
0.0
 49
0.0
 49
0.0
 49
1.0
175
     0
142
0.0208333333333333
142
0.0
142
0.0
142
0.0
142
0.0
142
0.0208333333333333
142
0.0
142
0.0
142
0.0
142
0.0
142
1.0
142
0.0
142
0.0
142
0.0
142
0.0
142
1.0
179
     0
144
0.0208333333333333
144
0.0
144
0.0
144
0.0
144
0.0
144
0.0208333333333333
144
0.0
144
0.0
144
0.0
144
0.0
144
1.0
144
0.0
144
0.0
144
0.0
144
0.0
144
1.0
147
0.0208333333333333
147
0.0
147
0.0
147
0.0
147
0.0
147
0.0208333333333333
147
0.0
147
0.0
147
0.0
147
0.0
147
1.0
147
0.0
147
0.0
147
0.0
147
0.0
147
1.0
  0
MATERIAL
  5
21
102
{ACAD_XDICTIONARY
360
22
102
}
102
{ACAD_REACTORS
330
10
102
}
330
10
100
AcDbMaterial
  1
Global
 72
     0
 43
0.0208333333333333
 43
0.0
 43
0.0
 43
0.0
 43
0.0
 43
0.0208333333333333
 43
0.0
 43
0.0
 43
0.0
 43
0.0
 43
1.0
 43
0.0
 43
0.0
 43
0.0
 43
0.0
 43
1.0
 77
     0
 47
0.0208333333333333
 47
0.0
 47
0.0
 47
0.0
 47
0.0
 47
0.0208333333333333
 47
0.0
 47
0.0
 47
0.0
 47
0.0
 47
1.0
 47
0.0
 47
0.0
 47
0.0
 47
0.0
 47
1.0
171
     0
 49
0.0208333333333333
 49
0.0
 49
0.0
 49
0.0
 49
0.0
 49
0.0208333333333333
 49
0.0
 49
0.0
 49
0.0
 49
0.0
 49
1.0
 49
0.0
 49
0.0
 49
0.0
 49
0.0
 49
1.0
175
     0
142
0.0208333333333333
142
0.0
142
0.0
142
0.0
142
0.0
142
0.0208333333333333
142
0.0
142
0.0
142
0.0
142
0.0
142
1.0
142
0.0
142
0.0
142
0.0
142
0.0
142
1.0
179
     0
144
0.0208333333333333
144
0.0
144
0.0
144
0.0
144
0.0
144
0.0208333333333333
144
0.0
144
0.0
144
0.0
144
0.0
144
1.0
144
0.0
144
0.0
144
0.0
144
0.0
144
1.0
147
0.0208333333333333
147
0.0
147
0.0
147
0.0
147
0.0
147
0.0208333333333333
147
0.0
147
0.0
147
0.0
147
0.0
147
1.0
147
0.0
147
0.0
147
0.0
147
0.0
147
1.0
  0
MLEADERSTYLE
  5
66
102
{ACAD_REACTORS
330
65
102
}
330
65
100
AcDbMLeaderStyle
179
     2
170
     2
171
     1
172
     0
 90
        2
 40
0.0
 41
0.0
173
     1
 91
-1056964608
340
5A
 92
       -2
290
     1
 42
0.09
291
     1
 43
0.36
  3
Standard
 44
0.18
300

342
55
174
     1
178
     6
175
     1
176
     0
 93
-1056964608
 45
0.18
292
     0
297
     0
 46
0.18
 94
-1056964608
 47
1.0
 49
1.0
140
1.0
293
     1
141
0.0
294
     1
177
     0
142
1.0
295
     0
296
     0
143
0.125
271
     0
272
     9
273
     9
298
     0
  0
MLINESTYLE
  5
5F
102
{ACAD_REACTORS
330
5E
102
}
330
5E
100
AcDbMlineStyle
  2
STANDARD
 70
     0
  3

 62
   256
 51
90.0
 52
90.0
 71
     2
 49
0.5
 62
   256
  6
BYLAYER
 49
-0.5
 62
   256
  6
BYLAYER
  0
ACDBPLACEHOLDER
  5
F
102
{ACAD_REACTORS
330
E
102
}
330
E
  0
SCALE
  5
43
102
{ACAD_REACTORS
330
42
102
}
330
42
100
AcDbScale
 70
     0
300
1:1
140
1.0
141
1.0
290
     1
  0
SCALE
  5
44
102
{ACAD_REACTORS
330
42
102
}
330
42
100
AcDbScale
 70
     0
300
1/128" = 1'-0"
140
0.0078125
141
12.0
290
     0
  0
SCALE
  5
45
102
{ACAD_REACTORS
330
42
102
}
330
42
100
AcDbScale
 70
     0
300
1/64" = 1'-0"
140
0.015625
141
12.0
290
     0
  0
SCALE
  5
46
102
{ACAD_REACTORS
330
42
102
}
330
42
100
AcDbScale
 70
     0
300
1/32" = 1'-0"
140
0.03125
141
12.0
290
     0
  0
SCALE
  5
47
102
{ACAD_REACTORS
330
42
102
}
330
42
100
AcDbScale
 70
     0
300
1/16" = 1'-0"
140
0.0625
141
12.0
290
     0
  0
SCALE
  5
48
102
{ACAD_REACTORS
330
42
102
}
330
42
100
AcDbScale
 70
     0
300
3/32" = 1'-0"
140
0.09375
141
12.0
290
     0
  0
SCALE
  5
49
102
{ACAD_REACTORS
330
42
102
}
330
42
100
AcDbScale
 70
     0
300
1/8" = 1'-0"
140
0.125
141
12.0
290
     0
  0
SCALE
  5
4A
102
{ACAD_REACTORS
330
42
102
}
330
42
100
AcDbScale
 70
     0
300
3/16" = 1'-0"
140
0.1875
141
12.0
290
     0
  0
SCALE
  5
4B
102
{ACAD_REACTORS
330
42
102
}
330
42
100
AcDbScale
 70
     0
300
1/4" = 1'-0"
140
0.25
141
12.0
290
     0
  0
SCALE
  5
4C
102
{ACAD_REACTORS
330
42
102
}
330
42
100
AcDbScale
 70
     0
300
3/8" = 1'-0"
140
0.375
141
12.0
290
     0
  0
SCALE
  5
4D
102
{ACAD_REACTORS
330
42
102
}
330
42
100
AcDbScale
 70
     0
300
1/2" = 1'-0"
140
0.5
141
12.0
290
     0
  0
SCALE
  5
4E
102
{ACAD_REACTORS
330
42
102
}
330
42
100
AcDbScale
 70
     0
300
3/4" = 1'-0"
140
0.75
141
12.0
290
     0
  0
SCALE
  5
4F
102
{ACAD_REACTORS
330
42
102
}
330
42
100
AcDbScale
 70
     0
300
1" = 1'-0"
140
1.0
141
12.0
290
     0
  0
SCALE
  5
50
102
{ACAD_REACTORS
330
42
102
}
330
42
100
AcDbScale
 70
     0
300
1-1/2" = 1'-0"
140
1.5
141
12.0
290
     0
  0
SCALE
  5
51
102
{ACAD_REACTORS
330
42
102
}
330
42
100
AcDbScale
 70
     0
300
3" = 1'-0"
140
3.0
141
12.0
290
     0
  0
SCALE
  5
52
102
{ACAD_REACTORS
330
42
102
}
330
42
100
AcDbScale
 70
     0
300
6" = 1'-0"
140
6.0
141
12.0
290
     0
  0
SCALE
  5
53
102
{ACAD_REACTORS
330
42
102
}
330
42
100
AcDbScale
 70
     0
300
1'-0" = 1'-0"
140
12.0
141
12.0
290
     0
  0
ACDBSECTIONVIEWSTYLE
  5
68
102
{ACAD_REACTORS
330
67
102
}
330
67
100
AcDbModelDocViewStyle
 70
     0
  3
Imperial24
290
     0
300
Imperial24
 90
        0
100
AcDbSectionViewStyle
 70
     0
 71
     0
 90
       78
 71
     1
340
55
 62
   256
 40
0.24
340
0
340
0
 62
   256
 40
0.24
300
I, O, Q, S, X, Z
 40
0.48
 90
        3
 40
0.18
 90
        1
 71
     2
340
5C
 90
       25
 62
   256
340
5C
 90
       50
 62
   256
 40
0.24
 40
0.0
 40
0.24
 71
     3
340
55
 62
   256
 40
0.24
 90
        1
 40
0.75
 90
        1
300
%<\AcVar ViewType \f "%tc1">% %<\AcVar ViewSectionStartId>%-%<\AcVar ViewSectionEndId>%\PSCALE %<\AcVar ViewScale \f "%sn">%
 71
     4
 62
   256
 62
   257
300
ANSI31
 40
1.0
 90
        0
290
     0
290
     0
 90
        6
 40
0.0
 40
1.570796326794896
 40
0.2617993877991494
 40
1.308996938995747
 40
-0.2617993877991494
 40
1.832595714594045
  0
TABLESTYLE
  5
64
102
{ACAD_XDICTIONARY
360
875
102
}
102
{ACAD_REACTORS
330
63
102
}
330
63
100
AcDbTableStyle
280
     0
  3
Standard
 70
     0
 71
     0
 40
0.06
 41
0.06
280
     0
281
     0
  7
Standard
140
0.18
170
     2
 62
     0
 63
     7
283
     0
 90
      512
 91
        0
  1

274
    -2
284
     1
 64
     0
275
    -2
285
     1
 65
     0
276
    -2
286
     1
 66
     0
277
    -2
287
     1
 67
     0
278
    -2
288
     1
 68
     0
279
    -2
289
     1
 69
     0
  7
Standard
140
0.25
170
     5
 62
     0
 63
     7
283
     0
 90
      512
 91
        0
  1

274
    -2
284
     1
 64
     0
275
    -2
285
     1
 65
     0
276
    -2
286
     1
 66
     0
277
    -2
287
     1
 67
     0
278
    -2
288
     1
 68
     0
279
    -2
289
     1
 69
     0
  7
Standard
140
0.18
170
     5
 62
     0
 63
     7
283
     0
 90
      512
 91
        0
  1

274
    -2
284
     1
 64
     0
275
    -2
285
     1
 65
     0
276
    -2
286
     1
 66
     0
277
    -2
287
     1
 67
     0
278
    -2
288
     1
 68
     0
279
    -2
289
     1
 69
     0
  0
VISUALSTYLE
  5
2F
102
{ACAD_REACTORS
330
29
102
}
330
29
100
AcDbVisualStyle
  2
2dWireframe
 70
     4
177
     3
291
     0
 70
    58
 90
        0
176
     1
 90
        2
176
     1
 90
        0
176
     1
 90
        0
176
     1
 40
0.6
176
     1
 40
30.0
176
     1
 62
     7
420
 16777215
176
     1
 90
        1
176
     1
 90
        4
176
     1
 62
     7
176
     1
 62
   257
176
     1
 90
        1
176
     1
 90
        1
176
     1
 40
1.0
176
     1
 90
        0
176
     1
 62
   257
176
     1
 40
1.0
176
     1
 90
        1
176
     1
 90
        6
176
     1
 90
        2
176
     1
 62
     7
176
     1
 90
        5
176
     1
 90
        0
176
     1
 90
        0
176
     1
290
     0
176
     1
 90
        1
176
     1
 40
0.0
176
     1
 90
        0
176
     1
290
     1
176
     1
290
     1
176
     1
290
     0
176
     1
290
     0
176
     1
290
     0
176
     1
290
     0
176
     1
290
     0
176
     1
290
     0
176
     1
290
     0
176
     1
 90
       50
176
     1
 40
0.0
176
     1
 40
1.0
176
     1
 90
        0
176
     1
 62
    18
176
     1
 90
       50
176
     1
 90
        3
176
     1
 62
     5
420
      255
176
     1
290
     0
176
     1
 90
       50
176
     1
 90
       50
176
     1
 90
       50
176
     1
290
     0
176
     1
 90
       50
176
     1
 62
   256
176
     0
 40
1.0
176
     0
 90
        2
176
     1
  1
strokes_ogs.tif
176
     1
290
     0
176
     1
 40
1.0
176
     1
 40
1.0
176
     1
  0
VISUALSTYLE
  5
2E
102
{ACAD_REACTORS
330
29
102
}
330
29
100
AcDbVisualStyle
  2
Basic
 70
     7
177
     3
291
     1
 70
    58
 90
        1
176
     1
 90
        0
176
     1
 90
        1
176
     1
 90
        0
176
     1
 40
0.6
176
     1
 40
30.0
176
     1
 62
     7
420
 16777215
176
     1
 90
        0
176
     1
 90
        4
176
     1
 62
     7
176
     1
 62
   257
176
     1
 90
        1
176
     1
 90
        1
176
     1
 40
1.0
176
     1
 90
        8
176
     1
 62
     7
176
     1
 40
1.0
176
     1
 90
        1
176
     1
 90
        6
176
     1
 90
        2
176
     1
 62
     7
176
     1
 90
        5
176
     1
 90
        0
176
     1
 90
        0
176
     1
290
     0
176
     1
 90
        1
176
     1
 40
0.0
176
     1
 90
        0
176
     1
290
     0
176
     1
290
     1
176
     1
290
     1
176
     1
290
     0
176
     1
290
     0
176
     1
290
     0
176
     1
290
     0
176
     1
290
     0
176
     1
290
     0
176
     1
 90
       50
176
     1
 40
0.0
176
     1
 40
1.0
176
     1
 90
        0
176
     1
 62
    18
176
     1
 90
       50
176
     1
 90
        3
176
     1
 62
     5
420
      255
176
     1
290
     0
176
     1
 90
       50
176
     1
 90
       50
176
     1
 90
       50
176
     1
290
     0
176
     1
 90
       50
176
     1
 62
   256
176
     0
 40
1.0
176
     0
 90
        2
176
     1
  1
strokes_ogs.tif
176
     1
290
     0
176
     1
 40
1.0
176
     1
 40
1.0
176
     1
  0
VISUALSTYLE
  5
35
102
{ACAD_REACTORS
330
29
102
}
330
29
100
AcDbVisualStyle
  2
Brighten
 70
    12
177
     3
291
     1
 70
    58
 90
        2
176
     1
 90
        2
176
     1
 90
        0
176
     1
 90
        0
176
     1
 40
0.6
176
     1
 40
30.0
176
     1
 62
     7
420
 16777215
176
     1
 90
        1
176
     1
 90
        4
176
     1
 62
     7
176
     1
 62
   257
176
     1
 90
        1
176
     1
 90
        1
176
     1
 40
1.0
176
     1
 90
        8
176
     1
 62
     7
176
     1
 40
1.0
176
     1
 90
        1
176
     1
 90
        6
176
     1
 90
        2
176
     1
 62
     7
176
     1
 90
        5
176
     1
 90
        0
176
     1
 90
        0
176
     1
290
     0
176
     1
 90
        1
176
     1
 40
50.0
176
     1
 90
        0
176
     1
290
     0
176
     1
290
     1
176
     1
290
     1
176
     1
290
     0
176
     1
290
     0
176
     1
290
     0
176
     1
290
     0
176
     1
290
     0
176
     1
290
     0
176
     1
 90
       50
176
     1
 40
0.0
176
     1
 40
1.0
176
     1
 90
        0
176
     1
 62
    18
176
     1
 90
       50
176
     1
 90
        3
176
     1
 62
     5
420
      255
176
     1
290
     0
176
     1
 90
       50
176
     1
 90
       50
176
     1
 90
       50
176
     1
290
     0
176
     1
 90
       50
176
     1
 62
   256
176
     0
 40
1.0
176
     0
 90
        2
176
     1
  1
strokes_ogs.tif
176
     1
290
     0
176
     1
 40
1.0
176
     1
 40
1.0
176
     1
  0
VISUALSTYLE
  5
39
102
{ACAD_REACTORS
330
29
102
}
330
29
100
AcDbVisualStyle
  2
ColorChange
 70
    16
177
     3
291
     1
 70
    58
 90
        2
176
     1
 90
        2
176
     1
 90
        3
176
     1
 90
        0
176
     1
 40
0.6
176
     1
 40
30.0
176
     1
 62
     8
420
  8421504
176
     1
 90
        1
176
     1
 90
        4
176
     1
 62
     7
176
     1
 62
   257
176
     1
 90
        1
176
     1
 90
        1
176
     1
 40
1.0
176
     1
 90
        8
176
     1
 62
     8
420
  8421504
176
     1
 40
1.0
176
     1
 90
        1
176
     1
 90
        6
176
     1
 90
        2
176
     1
 62
     7
176
     1
 90
        5
176
     1
 90
        0
176
     1
 90
        0
176
     1
290
     0
176
     1
 90
        1
176
     1
 40
0.0
176
     1
 90
        0
176
     1
290
     0
176
     1
290
     1
176
     1
290
     1
176
     1
290
     0
176
     1
290
     0
176
     1
290
     0
176
     1
290
     0
176
     1
290
     0
176
     1
290
     0
176
     1
 90
       50
176
     1
 40
0.0
176
     1
 40
1.0
176
     1
 90
        0
176
     1
 62
    18
176
     1
 90
       50
176
     1
 90
        3
176
     1
 62
     5
420
      255
176
     1
290
     0
176
     1
 90
       50
176
     1
 90
       50
176
     1
 90
       50
176
     1
290
     0
176
     1
 90
       50
176
     1
 62
   256
176
     0
 40
1.0
176
     0
 90
        2
176
     1
  1
strokes_ogs.tif
176
     1
290
     0
176
     1
 40
1.0
176
     1
 40
1.0
176
     1
  0
VISUALSTYLE
  5
32
102
{ACAD_REACTORS
330
29
102
}
330
29
100
AcDbVisualStyle
  2
Conceptual
 70
     9
177
     3
291
     0
 70
    58
 90
        3
176
     1
 90
        2
176
     1
 90
        0
176
     1
 90
        0
176
     1
 40
0.6
176
     1
 40
30.0
176
     1
 62
     7
420
 16777215
176
     1
 90
        2
176
     1
 90
        2
176
     1
 62
     7
176
     1
 62
   257
176
     1
 90
        1
176
     1
 90
        1
176
     1
 40
179.0
176
     1
 90
        8
176
     1
 62
     7
176
     1
 40
1.0
176
     1
 90
        1
176
     1
 90
        6
176
     1
 90
        2
176
     1
 62
     7
176
     1
 90
        3
176
     1
 90
        0
176
     1
 90
        0
176
     1
290
     0
176
     1
 90
        1
176
     1
 40
0.0
176
     1
 90
        0
176
     1
290
     0
176
     1
290
     1
176
     1
290
     1
176
     1
290
     0
176
     1
290
     0
176
     1
290
     0
176
     1
290
     0
176
     1
290
     0
176
     1
290
     0
176
     1
 90
       50
176
     1
 40
0.0
176
     1
 40
1.0
176
     1
 90
        0
176
     1
 62
    18
176
     1
 90
       50
176
     1
 90
        3
176
     1
 62
     5
420
      255
176
     1
290
     0
176
     1
 90
       50
176
     1
 90
       50
176
     1
 90
       50
176
     1
290
     0
176
     1
 90
       50
176
     1
 62
   256
176
     0
 40
1.0
176
     0
 90
        2
176
     1
  1
strokes_ogs.tif
176
     1
290
     0
176
     1
 40
1.0
176
     1
 40
1.0
176
     1
  0
VISUALSTYLE
  5
34
102
{ACAD_REACTORS
330
29
102
}
330
29
100
AcDbVisualStyle
  2
Dim
 70
    11
177
     3
291
     1
 70
    58
 90
        2
176
     1
 90
        2
176
     1
 90
        0
176
     1
 90
        0
176
     1
 40
0.6
176
     1
 40
30.0
176
     1
 62
     7
420
 16777215
176
     1
 90
        1
176
     1
 90
        4
176
     1
 62
     7
176
     1
 62
   257
176
     1
 90
        1
176
     1
 90
        1
176
     1
 40
1.0
176
     1
 90
        8
176
     1
 62
     7
176
     1
 40
1.0
176
     1
 90
        1
176
     1
 90
        6
176
     1
 90
        2
176
     1
 62
     7
176
     1
 90
        5
176
     1
 90
        0
176
     1
 90
        0
176
     1
290
     0
176
     1
 90
        1
176
     1
 40
-50.0
176
     1
 90
        0
176
     1
290
     0
176
     1
290
     1
176
     1
290
     1
176
     1
290
     0
176
     1
290
     0
176
     1
290
     0
176
     1
290
     0
176
     1
290
     0
176
     1
290
     0
176
     1
 90
       50
176
     1
 40
0.0
176
     1
 40
1.0
176
     1
 90
        0
176
     1
 62
    18
176
     1
 90
       50
176
     1
 90
        3
176
     1
 62
     5
420
      255
176
     1
290
     0
176
     1
 90
       50
176
     1
 90
       50
176
     1
 90
       50
176
     1
290
     0
176
     1
 90
       50
176
     1
 62
   256
176
     0
 40
1.0
176
     0
 90
        2
176
     1
  1
strokes_ogs.tif
176
     1
290
     0
176
     1
 40
1.0
176
     1
 40
1.0
176
     1
  0
VISUALSTYLE
  5
41
102
{ACAD_REACTORS
330
29
102
}
330
29
100
AcDbVisualStyle
  2
EdgeColorOff
 70
    22
177
     3
291
     1
 70
    58
 90
        2
176
     0
 90
        2
176
     0
 90
        0
176
     0
 90
        0
176
     0
 40
0.6
176
     0
 40
30.0
176
     0
 62
     7
420
 16777215
176
     0
 90
        1
176
     0
 90
        4
176
     0
 62
     7
176
     0
 62
   257
176
     0
 90
        1
176
     0
 90
        1
176
     0
 40
1.0
176
     0
 90
        8
176
     2
 62
     7
176
     0
 40
1.0
176
     0
 90
        1
176
     0
 90
        6
176
     0
 90
        2
176
     0
 62
     7
176
     0
 90
        5
176
     0
 90
        0
176
     0
 90
        0
176
     0
290
     0
176
     0
 90
        1
176
     0
 40
0.0
176
     0
 90
        0
176
     0
290
     0
176
     1
290
     1
176
     1
290
     1
176
     1
290
     0
176
     1
290
     0
176
     1
290
     0
176
     1
290
     0
176
     1
290
     0
176
     1
290
     0
176
     1
 90
       50
176
     0
 40
0.0
176
     0
 40
1.0
176
     0
 90
        0
176
     0
 62
    18
176
     0
 90
       50
176
     0
 90
        3
176
     0
 62
     5
420
      255
176
     0
290
     0
176
     1
 90
       50
176
     0
 90
       50
176
     0
 90
       50
176
     0
290
     0
176
     1
 90
       50
176
     0
 62
   256
176
     0
 40
1.0
176
     0
 90
        2
176
     0
  1
strokes_ogs.tif
176
     0
290
     0
176
     1
 40
1.0
176
     0
 40
1.0
176
     0
  0
VISUALSTYLE
  5
38
102
{ACAD_REACTORS
330
29
102
}
330
29
100
AcDbVisualStyle
  2
Facepattern
 70
    15
177
     3
291
     1
 70
    58
 90
        2
176
     1
 90
        2
176
     1
 90
        0
176
     1
 90
        0
176
     1
 40
0.6
176
     1
 40
30.0
176
     1
 62
     7
420
 16777215
176
     1
 90
        1
176
     1
 90
        4
176
     1
 62
     7
176
     1
 62
   257
176
     1
 90
        1
176
     1
 90
        1
176
     1
 40
1.0
176
     1
 90
        8
176
     1
 62
     7
176
     1
 40
1.0
176
     1
 90
        1
176
     1
 90
        6
176
     1
 90
        2
176
     1
 62
     7
176
     1
 90
        5
176
     1
 90
        0
176
     1
 90
        0
176
     1
290
     0
176
     1
 90
        1
176
     1
 40
0.0
176
     1
 90
        0
176
     1
290
     0
176
     1
290
     1
176
     1
290
     1
176
     1
290
     0
176
     1
290
     0
176
     1
290
     0
176
     1
290
     0
176
     1
290
     0
176
     1
290
     0
176
     1
 90
       50
176
     1
 40
0.0
176
     1
 40
1.0
176
     1
 90
        0
176
     1
 62
    18
176
     1
 90
       50
176
     1
 90
        3
176
     1
 62
     5
420
      255
176
     1
290
     0
176
     1
 90
       50
176
     1
 90
       50
176
     1
 90
       50
176
     1
290
     0
176
     1
 90
       50
176
     1
 62
   256
176
     0
 40
1.0
176
     0
 90
        2
176
     1
  1
strokes_ogs.tif
176
     1
290
     0
176
     1
 40
1.0
176
     1
 40
1.0
176
     1
  0
VISUALSTYLE
  5
2A
102
{ACAD_REACTORS
330
29
102
}
330
29
100
AcDbVisualStyle
  2
Flat
 70
     0
177
     3
291
     1
 70
    58
 90
        2
176
     1
 90
        1
176
     1
 90
        1
176
     1
 90
        2
176
     1
 40
0.6
176
     1
 40
30.0
176
     1
 62
     7
420
 16777215
176
     1
 90
        0
176
     1
 90
        0
176
     1
 62
     7
176
     1
 62
   257
176
     1
 90
        1
176
     1
 90
        1
176
     1
 40
1.0
176
     1
 90
        8
176
     1
 62
     7
176
     1
 40
1.0
176
     1
 90
        1
176
     1
 90
        6
176
     1
 90
        2
176
     1
 62
     7
176
     1
 90
        5
176
     1
 90
        0
176
     1
 90
        0
176
     1
290
     0
176
     1
 90
       13
176
     1
 40
0.0
176
     1
 90
        0
176
     1
290
     0
176
     1
290
     1
176
     1
290
     1
176
     1
290
     0
176
     1
290
     0
176
     1
290
     0
176
     1
290
     0
176
     1
290
     0
176
     1
290
     0
176
     1
 90
       50
176
     1
 40
0.0
176
     1
 40
1.0
176
     1
 90
        0
176
     1
 62
    18
176
     1
 90
       50
176
     1
 90
        3
176
     1
 62
     5
420
      255
176
     1
290
     0
176
     1
 90
       50
176
     1
 90
       50
176
     1
 90
       50
176
     1
290
     0
176
     1
 90
       50
176
     1
 62
   256
176
     0
 40
1.0
176
     0
 90
        2
176
     1
  1
strokes_ogs.tif
176
     1
290
     0
176
     1
 40
1.0
176
     1
 40
1.0
176
     1
  0
VISUALSTYLE
  5
2B
102
{ACAD_REACTORS
330
29
102
}
330
29
100
AcDbVisualStyle
  2
FlatWithEdges
 70
     1
177
     3
291
     1
 70
    58
 90
        2
176
     1
 90
        1
176
     1
 90
        1
176
     1
 90
        2
176
     1
 40
0.6
176
     1
 40
30.0
176
     1
 62
     7
420
 16777215
176
     1
 90
        1
176
     1
 90
        0
176
     1
 62
     7
176
     1
 62
   257
176
     1
 90
        1
176
     1
 90
        1
176
     1
 40
1.0
176
     1
 90
        0
176
     1
 62
   257
176
     1
 40
1.0
176
     1
 90
        1
176
     1
 90
        6
176
     1
 90
        2
176
     1
 62
     7
176
     1
 90
        5
176
     1
 90
        0
176
     1
 90
        0
176
     1
290
     0
176
     1
 90
       13
176
     1
 40
0.0
176
     1
 90
        0
176
     1
290
     0
176
     1
290
     1
176
     1
290
     1
176
     1
290
     0
176
     1
290
     0
176
     1
290
     0
176
     1
290
     0
176
     1
290
     0
176
     1
290
     0
176
     1
 90
       50
176
     1
 40
0.0
176
     1
 40
1.0
176
     1
 90
        0
176
     1
 62
    18
176
     1
 90
       50
176
     1
 90
        3
176
     1
 62
     5
420
      255
176
     1
290
     0
176
     1
 90
       50
176
     1
 90
       50
176
     1
 90
       50
176
     1
290
     0
176
     1
 90
       50
176
     1
 62
   256
176
     0
 40
1.0
176
     0
 90
        2
176
     1
  1
strokes_ogs.tif
176
     1
290
     0
176
     1
 40
1.0
176
     1
 40
1.0
176
     1
  0
VISUALSTYLE
  5
2C
102
{ACAD_REACTORS
330
29
102
}
330
29
100
AcDbVisualStyle
  2
Gouraud
 70
     2
177
     3
291
     1
 70
    58
 90
        2
176
     1
 90
        2
176
     1
 90
        1
176
     1
 90
        2
176
     1
 40
0.6
176
     1
 40
30.0
176
     1
 62
     7
420
 16777215
176
     1
 90
        0
176
     1
 90
        0
176
     1
 62
     7
176
     1
 62
   257
176
     1
 90
        1
176
     1
 90
        1
176
     1
 40
1.0
176
     1
 90
        0
176
     1
 62
     7
176
     1
 40
1.0
176
     1
 90
        1
176
     1
 90
        6
176
     1
 90
        2
176
     1
 62
     7
176
     1
 90
        5
176
     1
 90
        0
176
     1
 90
        0
176
     1
290
     0
176
     1
 90
       13
176
     1
 40
0.0
176
     1
 90
        0
176
     1
290
     0
176
     1
290
     1
176
     1
290
     1
176
     1
290
     0
176
     1
290
     0
176
     1
290
     0
176
     1
290
     0
176
     1
290
     0
176
     1
290
     0
176
     1
 90
       50
176
     1
 40
0.0
176
     1
 40
1.0
176
     1
 90
        0
176
     1
 62
    18
176
     1
 90
       50
176
     1
 90
        3
176
     1
 62
     5
420
      255
176
     1
290
     0
176
     1
 90
       50
176
     1
 90
       50
176
     1
 90
       50
176
     1
290
     0
176
     1
 90
       50
176
     1
 62
   256
176
     0
 40
1.0
176
     0
 90
        2
176
     1
  1
strokes_ogs.tif
176
     1
290
     0
176
     1
 40
1.0
176
     1
 40
1.0
176
     1
  0
VISUALSTYLE
  5
2D
102
{ACAD_REACTORS
330
29
102
}
330
29
100
AcDbVisualStyle
  2
GouraudWithEdges
 70
     3
177
     3
291
     1
 70
    58
 90
        2
176
     1
 90
        2
176
     1
 90
        1
176
     1
 90
        2
176
     1
 40
0.6
176
     1
 40
30.0
176
     1
 62
     7
420
 16777215
176
     1
 90
        1
176
     1
 90
        0
176
     1
 62
     7
176
     1
 62
   257
176
     1
 90
        1
176
     1
 90
        1
176
     1
 40
1.0
176
     1
 90
        0
176
     1
 62
   257
176
     1
 40
1.0
176
     1
 90
        1
176
     1
 90
        6
176
     1
 90
        2
176
     1
 62
     7
176
     1
 90
        5
176
     1
 90
        0
176
     1
 90
        0
176
     1
290
     0
176
     1
 90
       13
176
     1
 40
0.0
176
     1
 90
        0
176
     1
290
     0
176
     1
290
     1
176
     1
290
     1
176
     1
290
     0
176
     1
290
     0
176
     1
290
     0
176
     1
290
     0
176
     1
290
     0
176
     1
290
     0
176
     1
 90
       50
176
     1
 40
0.0
176
     1
 40
1.0
176
     1
 90
        0
176
     1
 62
    18
176
     1
 90
       50
176
     1
 90
        3
176
     1
 62
     5
420
      255
176
     1
290
     0
176
     1
 90
       50
176
     1
 90
       50
176
     1
 90
       50
176
     1
290
     0
176
     1
 90
       50
176
     1
 62
   256
176
     0
 40
1.0
176
     0
 90
        2
176
     1
  1
strokes_ogs.tif
176
     1
290
     0
176
     1
 40
1.0
176
     1
 40
1.0
176
     1
  0
VISUALSTYLE
  5
31
102
{ACAD_REACTORS
330
29
102
}
330
29
100
AcDbVisualStyle
  2
Hidden
 70
     6
177
     3
291
     0
 70
    58
 90
        1
176
     1
 90
        2
176
     1
 90
        2
176
     1
 90
        0
176
     1
 40
0.6
176
     1
 40
30.0
176
     1
 62
     7
420
 16777215
176
     1
 90
        2
176
     1
 90
        2
176
     1
 62
     7
176
     1
 62
   257
176
     1
 90
        2
176
     1
 90
        1
176
     1
 40
40.0
176
     1
 90
        0
176
     1
 62
   257
176
     1
 40
1.0
176
     1
 90
        1
176
     1
 90
        6
176
     1
 90
        2
176
     1
 62
     7
176
     1
 90
        3
176
     1
 90
        0
176
     1
 90
        0
176
     1
290
     0
176
     1
 90
        1
176
     1
 40
0.0
176
     1
 90
        0
176
     1
290
     0
176
     1
290
     1
176
     1
290
     1
176
     1
290
     0
176
     1
290
     0
176
     1
290
     0
176
     1
290
     0
176
     1
290
     0
176
     1
290
     0
176
     1
 90
       50
176
     1
 40
0.0
176
     1
 40
1.0
176
     1
 90
        0
176
     1
 62
    18
176
     1
 90
       50
176
     1
 90
        3
176
     1
 62
     5
420
      255
176
     1
290
     0
176
     1
 90
       50
176
     1
 90
       50
176
     1
 90
       50
176
     1
290
     0
176
     1
 90
       50
176
     1
 62
   256
176
     0
 40
1.0
176
     0
 90
        2
176
     1
  1
strokes_ogs.tif
176
     1
290
     0
176
     1
 40
1.0
176
     1
 40
1.0
176
     1
  0
VISUALSTYLE
  5
3F
102
{ACAD_REACTORS
330
29
102
}
330
29
100
AcDbVisualStyle
  2
JitterOff
 70
    20
177
     3
291
     1
 70
    58
 90
        2
176
     0
 90
        2
176
     0
 90
        0
176
     0
 90
        0
176
     0
 40
0.6
176
     0
 40
30.0
176
     0
 62
     7
420
 16777215
176
     0
 90
        1
176
     0
 90
        4
176
     0
 62
     7
176
     0
 62
   257
176
     0
 90
        1
176
     0
 90
        1
176
     0
 40
1.0
176
     0
 90
       10
176
     2
 62
     7
176
     0
 40
1.0
176
     0
 90
        1
176
     0
 90
        6
176
     0
 90
        2
176
     0
 62
     7
176
     0
 90
        5
176
     0
 90
        0
176
     0
 90
        0
176
     0
290
     0
176
     0
 90
        1
176
     0
 40
0.0
176
     0
 90
        0
176
     0
290
     0
176
     1
290
     1
176
     1
290
     1
176
     1
290
     0
176
     1
290
     0
176
     1
290
     0
176
     1
290
     0
176
     1
290
     0
176
     1
290
     0
176
     1
 90
       50
176
     0
 40
0.0
176
     0
 40
1.0
176
     0
 90
        0
176
     0
 62
    18
176
     0
 90
       50
176
     0
 90
        3
176
     0
 62
     5
420
      255
176
     0
290
     0
176
     1
 90
       50
176
     0
 90
       50
176
     0
 90
       50
176
     0
290
     0
176
     1
 90
       50
176
     0
 62
   256
176
     0
 40
1.0
176
     0
 90
        2
176
     0
  1
strokes_ogs.tif
176
     0
290
     0
176
     1
 40
1.0
176
     0
 40
1.0
176
     0
  0
VISUALSTYLE
  5
37
102
{ACAD_REACTORS
330
29
102
}
330
29
100
AcDbVisualStyle
  2
Linepattern
 70
    14
177
     3
291
     1
 70
    58
 90
        2
176
     1
 90
        2
176
     1
 90
        0
176
     1
 90
        0
176
     1
 40
0.6
176
     1
 40
30.0
176
     1
 62
     7
420
 16777215
176
     1
 90
        1
176
     1
 90
        4
176
     1
 62
     7
176
     1
 62
   257
176
     1
 90
        7
176
     1
 90
        7
176
     1
 40
1.0
176
     1
 90
        8
176
     1
 62
     7
176
     1
 40
1.0
176
     1
 90
        1
176
     1
 90
        6
176
     1
 90
        2
176
     1
 62
     7
176
     1
 90
        5
176
     1
 90
        0
176
     1
 90
        0
176
     1
290
     0
176
     1
 90
        1
176
     1
 40
0.0
176
     1
 90
        0
176
     1
290
     0
176
     1
290
     1
176
     1
290
     1
176
     1
290
     0
176
     1
290
     0
176
     1
290
     0
176
     1
290
     0
176
     1
290
     0
176
     1
290
     0
176
     1
 90
       50
176
     1
 40
0.0
176
     1
 40
1.0
176
     1
 90
        0
176
     1
 62
    18
176
     1
 90
       50
176
     1
 90
        3
176
     1
 62
     5
420
      255
176
     1
290
     0
176
     1
 90
       50
176
     1
 90
       50
176
     1
 90
       50
176
     1
290
     0
176
     1
 90
       50
176
     1
 62
   256
176
     0
 40
1.0
176
     0
 90
        2
176
     1
  1
strokes_ogs.tif
176
     1
290
     0
176
     1
 40
1.0
176
     1
 40
1.0
176
     1
  0
VISUALSTYLE
  5
40
102
{ACAD_REACTORS
330
29
102
}
330
29
100
AcDbVisualStyle
  2
OverhangOff
 70
    21
177
     3
291
     1
 70
    58
 90
        2
176
     0
 90
        2
176
     0
 90
        0
176
     0
 90
        0
176
     0
 40
0.6
176
     0
 40
30.0
176
     0
 62
     7
420
 16777215
176
     0
 90
        1
176
     0
 90
        4
176
     0
 62
     7
176
     0
 62
   257
176
     0
 90
        1
176
     0
 90
        1
176
     0
 40
1.0
176
     0
 90
        9
176
     2
 62
     7
176
     0
 40
1.0
176
     0
 90
        1
176
     0
 90
        6
176
     0
 90
        2
176
     0
 62
     7
176
     0
 90
        5
176
     0
 90
        0
176
     0
 90
        0
176
     0
290
     0
176
     0
 90
        1
176
     0
 40
0.0
176
     0
 90
        0
176
     0
290
     0
176
     1
290
     1
176
     1
290
     1
176
     1
290
     0
176
     1
290
     0
176
     1
290
     0
176
     1
290
     0
176
     1
290
     0
176
     1
290
     0
176
     1
 90
       50
176
     0
 40
0.0
176
     0
 40
1.0
176
     0
 90
        0
176
     0
 62
    18
176
     0
 90
       50
176
     0
 90
        3
176
     0
 62
     5
420
      255
176
     0
290
     0
176
     1
 90
       50
176
     0
 90
       50
176
     0
 90
       50
176
     0
290
     0
176
     1
 90
       50
176
     0
 62
   256
176
     0
 40
1.0
176
     0
 90
        2
176
     0
  1
strokes_ogs.tif
176
     0
290
     0
176
     1
 40
1.0
176
     0
 40
1.0
176
     0
  0
VISUALSTYLE
  5
33
102
{ACAD_REACTORS
330
29
102
}
330
29
100
AcDbVisualStyle
  2
Realistic
 70
     8
177
     3
291
     0
 70
    58
 90
        2
176
     1
 90
        3
176
     1
 90
        0
176
     1
 90
        2
176
     1
 40
0.6
176
     1
 40
30.0
176
     1
 62
     7
420
 16777215
176
     1
 90
        0
176
     1
 90
        0
176
     1
 62
     7
176
     1
 62
   257
176
     1
 90
        1
176
     1
 90
        1
176
     1
 40
1.0
176
     1
 90
        8
176
     1
 62
   257
176
     1
 40
1.0
176
     1
 90
        1
176
     1
 90
        6
176
     1
 90
        2
176
     1
 62
     7
176
     1
 90
        3
176
     1
 90
        0
176
     1
 90
        0
176
     1
290
     0
176
     1
 90
       13
176
     1
 40
0.0
176
     1
 90
        0
176
     1
290
     0
176
     1
290
     1
176
     1
290
     1
176
     1
290
     0
176
     1
290
     0
176
     1
290
     0
176
     1
290
     0
176
     1
290
     0
176
     1
290
     0
176
     1
 90
       50
176
     1
 40
0.0
176
     1
 40
1.0
176
     1
 90
        0
176
     1
 62
    18
176
     1
 90
       50
176
     1
 90
        3
176
     1
 62
     5
420
      255
176
     1
290
     0
176
     1
 90
       50
176
     1
 90
       50
176
     1
 90
       50
176
     1
290
     0
176
     1
 90
       50
176
     1
 62
   256
176
     0
 40
1.0
176
     0
 90
        2
176
     1
  1
strokes_ogs.tif
176
     1
290
     0
176
     1
 40
1.0
176
     1
 40
1.0
176
     1
  0
VISUALSTYLE
  5
3E
102
{ACAD_REACTORS
330
29
102
}
330
29
100
AcDbVisualStyle
  2
Shaded
 70
    27
177
     3
291
     0
 70
    58
 90
        2
176
     1
 90
        2
176
     1
 90
        1
176
     1
 90
        2
176
     1
 40
0.6
176
     1
 40
30.0
176
     1
 62
     7
420
 16777215
176
     1
 90
        0
176
     1
 90
        4
176
     1
 62
     7
176
     1
 62
   257
176
     1
 90
        1
176
     1
 90
        1
176
     1
 40
1.0
176
     1
 90
        8
176
     1
 62
   257
176
     1
 40
1.0
176
     1
 90
        1
176
     1
 90
        6
176
     1
 90
        2
176
     1
 62
     8
420
  7895160
176
     1
 90
        3
176
     1
 90
        0
176
     1
 90
        0
176
     1
290
     0
176
     1
 90
        5
176
     1
 40
0.0
176
     1
 90
        0
176
     1
290
     0
176
     1
290
     1
176
     1
290
     1
176
     1
290
     0
176
     1
290
     0
176
     1
290
     0
176
     1
290
     0
176
     1
290
     0
176
     1
290
     0
176
     1
 90
       50
176
     1
 40
0.0
176
     1
 40
1.0
176
     1
 90
        0
176
     1
 62
    18
176
     1
 90
       50
176
     1
 90
        3
176
     1
 62
     5
420
      255
176
     1
290
     0
176
     1
 90
       50
176
     1
 90
       50
176
     1
 90
       50
176
     1
290
     0
176
     1
 90
       50
176
     1
 62
   256
176
     0
 40
1.0
176
     0
 90
        2
176
     1
  1
strokes_ogs.tif
176
     1
290
     0
176
     1
 40
1.0
176
     1
 40
1.0
176
     1
  0
VISUALSTYLE
  5
3D
102
{ACAD_REACTORS
330
29
102
}
330
29
100
AcDbVisualStyle
  2
Shaded with edges
 70
    26
177
     3
291
     0
 70
    58
 90
        2
176
     1
 90
        2
176
     1
 90
        1
176
     1
 90
        2
176
     1
 40
0.6
176
     1
 40
30.0
176
     1
 62
     7
420
 16777215
176
     1
 90
        1
176
     1
 90
        2
176
     1
 62
     7
176
     1
 62
   257
176
     1
 90
        2
176
     1
 90
        1
176
     1
 40
1.0
176
     1
 90
        8
176
     1
 62
   257
176
     1
 40
1.0
176
     1
 90
        1
176
     1
 90
        6
176
     1
 90
        2
176
     1
 62
     7
176
     1
 90
        3
176
     1
 90
        0
176
     1
 90
        0
176
     1
290
     0
176
     1
 90
        5
176
     1
 40
0.0
176
     1
 90
        0
176
     1
290
     0
176
     1
290
     1
176
     1
290
     1
176
     1
290
     0
176
     1
290
     0
176
     1
290
     0
176
     1
290
     0
176
     1
290
     0
176
     1
290
     0
176
     1
 90
       50
176
     1
 40
0.0
176
     1
 40
1.0
176
     1
 90
        0
176
     1
 62
    18
176
     1
 90
       50
176
     1
 90
        3
176
     1
 62
     5
420
      255
176
     1
290
     0
176
     1
 90
       50
176
     1
 90
       50
176
     1
 90
       50
176
     1
290
     0
176
     1
 90
       50
176
     1
 62
   256
176
     0
 40
1.0
176
     0
 90
        2
176
     1
  1
strokes_ogs.tif
176
     1
290
     0
176
     1
 40
1.0
176
     1
 40
1.0
176
     1
  0
VISUALSTYLE
  5
3A
102
{ACAD_REACTORS
330
29
102
}
330
29
100
AcDbVisualStyle
  2
Shades of Gray
 70
    23
177
     3
291
     0
 70
    58
 90
        2
176
     1
 90
        2
176
     1
 90
        3
176
     1
 90
        0
176
     1
 40
0.6
176
     1
 40
30.0
176
     1
 62
     7
420
 16777215
176
     1
 90
        2
176
     1
 90
        2
176
     1
 62
     7
176
     1
 62
     7
176
     1
 90
        1
176
     1
 90
        1
176
     1
 40
40.0
176
     1
 90
        8
176
     1
 62
     7
176
     1
 40
1.0
176
     1
 90
        1
176
     1
 90
        6
176
     1
 90
        2
176
     1
 62
     7
176
     1
 90
        3
176
     1
 90
        0
176
     1
 90
        0
176
     1
290
     0
176
     1
 90
        1
176
     1
 40
0.0
176
     1
 90
        0
176
     1
290
     0
176
     1
290
     1
176
     1
290
     1
176
     1
290
     0
176
     1
290
     0
176
     1
290
     0
176
     1
290
     0
176
     1
290
     0
176
     1
290
     0
176
     1
 90
       50
176
     1
 40
0.0
176
     1
 40
1.0
176
     1
 90
        0
176
     1
 62
    18
176
     1
 90
       50
176
     1
 90
        3
176
     1
 62
     5
420
      255
176
     1
290
     0
176
     1
 90
       50
176
     1
 90
       50
176
     1
 90
       50
176
     1
290
     0
176
     1
 90
       50
176
     1
 62
   256
176
     0
 40
1.0
176
     0
 90
        2
176
     1
  1
strokes_ogs.tif
176
     1
290
     0
176
     1
 40
1.0
176
     1
 40
1.0
176
     1
  0
VISUALSTYLE
  5
3B
102
{ACAD_REACTORS
330
29
102
}
330
29
100
AcDbVisualStyle
  2
Sketchy
 70
    24
177
     3
291
     0
 70
    58
 90
        1
176
     1
 90
        2
176
     1
 90
        2
176
     1
 90
        0
176
     1
 40
0.6
176
     1
 40
30.0
176
     1
 62
     7
420
 16777215
176
     1
 90
        2
176
     1
 90
        2
176
     1
 62
     7
176
     1
 62
     7
176
     1
 90
        1
176
     1
 90
        1
176
     1
 40
40.0
176
     1
 90
       11
176
     1
 62
     7
176
     1
 40
1.0
176
     1
 90
        1
176
     1
 90
        6
176
     1
 90
        2
176
     1
 62
     7
176
     1
 90
        6
176
     1
 90
        0
176
     1
 90
        0
176
     1
290
     0
176
     1
 90
        1
176
     1
 40
0.0
176
     1
 90
        0
176
     1
290
     0
176
     1
290
     1
176
     1
290
     1
176
     1
290
     0
176
     1
290
     0
176
     1
290
     0
176
     1
290
     0
176
     1
290
     0
176
     1
290
     0
176
     1
 90
       50
176
     1
 40
0.0
176
     1
 40
1.0
176
     1
 90
        0
176
     1
 62
    18
176
     1
 90
       50
176
     1
 90
        3
176
     1
 62
     5
420
      255
176
     1
290
     0
176
     1
 90
       50
176
     1
 90
       50
176
     1
 90
       50
176
     1
290
     0
176
     1
 90
       50
176
     1
 62
   256
176
     0
 40
1.0
176
     0
 90
        2
176
     1
  1
strokes_ogs.tif
176
     1
290
     0
176
     1
 40
1.0
176
     1
 40
1.0
176
     1
  0
VISUALSTYLE
  5
36
102
{ACAD_REACTORS
330
29
102
}
330
29
100
AcDbVisualStyle
  2
Thicken
 70
    13
177
     3
291
     1
 70
    58
 90
        2
176
     1
 90
        2
176
     1
 90
        0
176
     1
 90
        0
176
     1
 40
0.6
176
     1
 40
30.0
176
     1
 62
     7
420
 16777215
176
     1
 90
        1
176
     1
 90
        4
176
     1
 62
     7
176
     1
 62
   257
176
     1
 90
        1
176
     1
 90
        1
176
     1
 40
1.0
176
     1
 90
       12
176
     1
 62
     7
176
     1
 40
1.0
176
     1
 90
        1
176
     1
 90
        6
176
     1
 90
        2
176
     1
 62
     7
176
     1
 90
        5
176
     1
 90
        0
176
     1
 90
        0
176
     1
290
     0
176
     1
 90
        1
176
     1
 40
0.0
176
     1
 90
        0
176
     1
290
     0
176
     1
290
     1
176
     1
290
     1
176
     1
290
     0
176
     1
290
     0
176
     1
290
     0
176
     1
290
     0
176
     1
290
     0
176
     1
290
     0
176
     1
 90
       50
176
     1
 40
0.0
176
     1
 40
1.0
176
     1
 90
        0
176
     1
 62
    18
176
     1
 90
       50
176
     1
 90
        3
176
     1
 62
     5
420
      255
176
     1
290
     0
176
     1
 90
       50
176
     1
 90
       50
176
     1
 90
       50
176
     1
290
     0
176
     1
 90
       50
176
     1
 62
   256
176
     0
 40
1.0
176
     0
 90
        2
176
     1
  1
strokes_ogs.tif
176
     1
290
     0
176
     1
 40
1.0
176
     1
 40
1.0
176
     1
  0
VISUALSTYLE
  5
30
102
{ACAD_REACTORS
330
29
102
}
330
29
100
AcDbVisualStyle
  2
Wireframe
 70
     5
177
     3
291
     0
 70
    58
 90
        0
176
     1
 90
        2
176
     1
 90
        0
176
     1
 90
        0
176
     1
 40
0.6
176
     1
 40
30.0
176
     1
 62
     7
420
 16777215
176
     1
 90
        1
176
     1
 90
        4
176
     1
 62
     7
176
     1
 62
   257
176
     1
 90
        1
176
     1
 90
        1
176
     1
 40
1.0
176
     1
 90
        0
176
     1
 62
   257
176
     1
 40
1.0
176
     1
 90
        1
176
     1
 90
        6
176
     1
 90
        2
176
     1
 62
     7
176
     1
 90
        3
176
     1
 90
        0
176
     1
 90
        0
176
     1
290
     0
176
     1
 90
        1
176
     1
 40
0.0
176
     1
 90
        0
176
     1
290
     0
176
     1
290
     1
176
     1
290
     1
176
     1
290
     0
176
     1
290
     0
176
     1
290
     0
176
     1
290
     0
176
     1
290
     0
176
     1
290
     0
176
     1
 90
       50
176
     1
 40
0.0
176
     1
 40
1.0
176
     1
 90
        0
176
     1
 62
    18
176
     1
 90
       50
176
     1
 90
        3
176
     1
 62
     5
420
      255
176
     1
290
     0
176
     1
 90
       50
176
     1
 90
       50
176
     1
 90
       50
176
     1
290
     0
176
     1
 90
       50
176
     1
 62
   256
176
     0
 40
1.0
176
     0
 90
        2
176
     1
  1
strokes_ogs.tif
176
     1
290
     0
176
     1
 40
1.0
176
     1
 40
1.0
176
     1
  0
VISUALSTYLE
  5
3C
102
{ACAD_REACTORS
330
29
102
}
330
29
100
AcDbVisualStyle
  2
X-Ray
 70
    25
177
     3
291
     0
 70
    58
 90
        2
176
     1
 90
        2
176
     1
 90
        1
176
     1
 90
        1
176
     1
 40
0.5
176
     1
 40
30.0
176
     1
 62
     7
420
 16777215
176
     1
 90
        1
176
     1
 90
        0
176
     1
 62
     7
176
     1
 62
   257
176
     1
 90
        1
176
     1
 90
        1
176
     1
 40
1.0
176
     1
 90
        8
176
     1
 62
     7
176
     1
 40
1.0
176
     1
 90
        1
176
     1
 90
        6
176
     1
 90
        2
176
     1
 62
     7
176
     1
 90
        3
176
     1
 90
        0
176
     1
 90
        0
176
     1
290
     0
176
     1
 90
       13
176
     1
 40
0.0
176
     1
 90
        0
176
     1
290
     0
176
     1
290
     1
176
     1
290
     1
176
     1
290
     0
176
     1
290
     0
176
     1
290
     0
176
     1
290
     0
176
     1
290
     0
176
     1
290
     0
176
     1
 90
       50
176
     1
 40
0.0
176
     1
 40
1.0
176
     1
 90
        0
176
     1
 62
    18
176
     1
 90
       50
176
     1
 90
        3
176
     1
 62
     5
420
      255
176
     1
290
     0
176
     1
 90
       50
176
     1
 90
       50
176
     1
 90
       50
176
     1
290
     0
176
     1
 90
       50
176
     1
 62
   256
176
     0
 40
1.0
176
     0
 90
        2
176
     1
  1
strokes_ogs.tif
176
     1
290
     0
176
     1
 40
1.0
176
     1
 40
1.0
176
     1
  0
DICTIONARYVAR
  5
50A
102
{ACAD_REACTORS
330
504
102
}
330
504
100
DictionaryVariables
280
     0
  1
1:1
  0
DICTIONARYVAR
  5
506
102
{ACAD_REACTORS
330
504
102
}
330
504
100
DictionaryVariables
280
     0
  1
STANDARD
  0
DICTIONARYVAR
  5
505
102
{ACAD_REACTORS
330
504
102
}
330
504
100
DictionaryVariables
280
     0
  1
STANDARD
  0
DICTIONARYVAR
  5
507
102
{ACAD_REACTORS
330
504
102
}
330
504
100
DictionaryVariables
280
     0
  1
Imperial24
  0
DICTIONARYVAR
  5
508
102
{ACAD_REACTORS
330
504
102
}
330
504
100
DictionaryVariables
280
     0
  1
Imperial24
  0
DICTIONARYVAR
  5
50C
102
{ACAD_REACTORS
330
504
102
}
330
504
100
DictionaryVariables
280
     0
  1
1
  0
DICTIONARYVAR
  5
50D
102
{ACAD_REACTORS
330
504
102
}
330
504
100
DictionaryVariables
280
     0
  1
15
  0
DICTIONARYVAR
  5
50B
102
{ACAD_REACTORS
330
504
102
}
330
504
100
DictionaryVariables
280
     0
  1
0
  0
DICTIONARYVAR
  5
509
102
{ACAD_REACTORS
330
504
102
}
330
504
100
DictionaryVariables
280
     0
  1
0
  0
DICTIONARY
  5
1A
330
19
100
AcDbDictionary
280
     1
281
     1
  3
BUMPTILE
360
1C
  3
DIFFUSETILE
360
1B
  3
OPACITYTILE
360
1F
  3
REFLECTIONTILE
360
1E
  3
REFRACTIONTILE
360
20
  3
SPECULARTILE
360
1D
  0
DICTIONARY
  5
12
330
11
100
AcDbDictionary
280
     1
281
     1
  3
BUMPTILE
360
14
  3
DIFFUSETILE
360
13
  3
OPACITYTILE
360
17
  3
REFLECTIONTILE
360
16
  3
REFRACTIONTILE
360
18
  3
SPECULARTILE
360
15
  0
DICTIONARY
  5
22
330
21
100
AcDbDictionary
280
     1
281
     1
  3
BUMPTILE
360
24
  3
DIFFUSETILE
360
23
  3
OPACITYTILE
360
27
  3
REFLECTIONTILE
360
26
  3
REFRACTIONTILE
360
28
  3
SPECULARTILE
360
25
  0
DICTIONARY
  5
875
330
64
100
AcDbDictionary
280
     1
281
     1
  3
ACAD_ROUNDTRIP_2008_TABLESTYLE_CELLSTYLEMAP
360
8BA
  0
XRECORD
  5
1C
102
{ACAD_REACTORS
330
1A
102
}
330
1A
100
AcDbXrecord
280
     1
270
     1
271
     1
  0
XRECORD
  5
1B
102
{ACAD_REACTORS
330
1A
102
}
330
1A
100
AcDbXrecord
280
     1
270
     1
271
     1
  0
XRECORD
  5
1F
102
{ACAD_REACTORS
330
1A
102
}
330
1A
100
AcDbXrecord
280
     1
270
     1
271
     1
  0
XRECORD
  5
1E
102
{ACAD_REACTORS
330
1A
102
}
330
1A
100
AcDbXrecord
280
     1
270
     1
271
     1
  0
XRECORD
  5
20
102
{ACAD_REACTORS
330
1A
102
}
330
1A
100
AcDbXrecord
280
     1
270
     1
271
     1
  0
XRECORD
  5
1D
102
{ACAD_REACTORS
330
1A
102
}
330
1A
100
AcDbXrecord
280
     1
270
     1
271
     1
  0
XRECORD
  5
14
102
{ACAD_REACTORS
330
12
102
}
330
12
100
AcDbXrecord
280
     1
270
     1
271
     1
  0
XRECORD
  5
13
102
{ACAD_REACTORS
330
12
102
}
330
12
100
AcDbXrecord
280
     1
270
     1
271
     1
  0
XRECORD
  5
17
102
{ACAD_REACTORS
330
12
102
}
330
12
100
AcDbXrecord
280
     1
270
     1
271
     1
  0
XRECORD
  5
16
102
{ACAD_REACTORS
330
12
102
}
330
12
100
AcDbXrecord
280
     1
270
     1
271
     1
  0
XRECORD
  5
18
102
{ACAD_REACTORS
330
12
102
}
330
12
100
AcDbXrecord
280
     1
270
     1
271
     1
  0
XRECORD
  5
15
102
{ACAD_REACTORS
330
12
102
}
330
12
100
AcDbXrecord
280
     1
270
     1
271
     1
  0
XRECORD
  5
24
102
{ACAD_REACTORS
330
22
102
}
330
22
100
AcDbXrecord
280
     1
270
     1
271
     1
  0
XRECORD
  5
23
102
{ACAD_REACTORS
330
22
102
}
330
22
100
AcDbXrecord
280
     1
270
     1
271
     1
  0
XRECORD
  5
27
102
{ACAD_REACTORS
330
22
102
}
330
22
100
AcDbXrecord
280
     1
270
     1
271
     1
  0
XRECORD
  5
26
102
{ACAD_REACTORS
330
22
102
}
330
22
100
AcDbXrecord
280
     1
270
     1
271
     1
  0
XRECORD
  5
28
102
{ACAD_REACTORS
330
22
102
}
330
22
100
AcDbXrecord
280
     1
270
     1
271
     1
  0
XRECORD
  5
25
102
{ACAD_REACTORS
330
22
102
}
330
22
100
AcDbXrecord
280
     1
270
     1
271
     1
  0
CELLSTYLEMAP
  5
8BA
102
{ACAD_REACTORS
330
875
102
}
330
875
100
AcDbCellStyleMap
 90
        3
300
CELLSTYLE
  1
TABLEFORMAT_BEGIN
 90
        5
170
     1
 91
        0
 92
    32768
 62
   257
 93
        1
300
CONTENTFORMAT
  1
CONTENTFORMAT_BEGIN
 90
        0
 91
        0
 92
      512
 93
        0
300

 40
0.0
140
1.0
 94
        5
 62
     0
340
55
144
0.25
309
CONTENTFORMAT_END
171
     1
301
MARGIN
  1
CELLMARGIN_BEGIN
 40
0.06
 40
0.06
 40
0.06
 40
0.06
 40
0.18
 40
0.18
309
CELLMARGIN_END
 94
        6
 95
        1
302
GRIDFORMAT
  1
GRIDFORMAT_BEGIN
 90
        0
 91
        1
 62
     0
 92
       -2
340
0
 93
        0
 40
0.045
309
GRIDFORMAT_END
 95
        2
302
GRIDFORMAT
  1
GRIDFORMAT_BEGIN
 90
        0
 91
        1
 62
     0
 92
       -2
340
0
 93
        0
 40
0.045
309
GRIDFORMAT_END
 95
        4
302
GRIDFORMAT
  1
GRIDFORMAT_BEGIN
 90
        0
 91
        1
 62
     0
 92
       -2
340
0
 93
        0
 40
0.045
309
GRIDFORMAT_END
 95
        8
302
GRIDFORMAT
  1
GRIDFORMAT_BEGIN
 90
        0
 91
        1
 62
     0
 92
       -2
340
0
 93
        0
 40
0.045
309
GRIDFORMAT_END
 95
       16
302
GRIDFORMAT
  1
GRIDFORMAT_BEGIN
 90
        0
 91
        1
 62
     0
 92
       -2
340
0
 93
        0
 40
0.045
309
GRIDFORMAT_END
 95
       32
302
GRIDFORMAT
  1
GRIDFORMAT_BEGIN
 90
        0
 91
        1
 62
     0
 92
       -2
340
0
 93
        0
 40
0.045
309
GRIDFORMAT_END
309
TABLEFORMAT_END
  1
CELLSTYLE_BEGIN
 90
        1
 91
        1
300
_TITLE
309
CELLSTYLE_END
300
CELLSTYLE
  1
TABLEFORMAT_BEGIN
 90
        5
170
     1
 91
        0
 92
        0
 62
   257
 93
        1
300
CONTENTFORMAT
  1
CONTENTFORMAT_BEGIN
 90
        0
 91
        0
 92
      512
 93
        0
300

 40
0.0
140
1.0
 94
        5
 62
     0
340
55
144
0.18
309
CONTENTFORMAT_END
171
     1
301
MARGIN
  1
CELLMARGIN_BEGIN
 40
0.06
 40
0.06
 40
0.06
 40
0.06
 40
0.18
 40
0.18
309
CELLMARGIN_END
 94
        6
 95
        1
302
GRIDFORMAT
  1
GRIDFORMAT_BEGIN
 90
        0
 91
        1
 62
     0
 92
       -2
340
0
 93
        0
 40
0.045
309
GRIDFORMAT_END
 95
        2
302
GRIDFORMAT
  1
GRIDFORMAT_BEGIN
 90
        0
 91
        1
 62
     0
 92
       -2
340
0
 93
        0
 40
0.045
309
GRIDFORMAT_END
 95
        4
302
GRIDFORMAT
  1
GRIDFORMAT_BEGIN
 90
        0
 91
        1
 62
     0
 92
       -2
340
0
 93
        0
 40
0.045
309
GRIDFORMAT_END
 95
        8
302
GRIDFORMAT
  1
GRIDFORMAT_BEGIN
 90
        0
 91
        1
 62
     0
 92
       -2
340
0
 93
        0
 40
0.045
309
GRIDFORMAT_END
 95
       16
302
GRIDFORMAT
  1
GRIDFORMAT_BEGIN
 90
        0
 91
        1
 62
     0
 92
       -2
340
0
 93
        0
 40
0.045
309
GRIDFORMAT_END
 95
       32
302
GRIDFORMAT
  1
GRIDFORMAT_BEGIN
 90
        0
 91
        1
 62
     0
 92
       -2
340
0
 93
        0
 40
0.045
309
GRIDFORMAT_END
309
TABLEFORMAT_END
  1
CELLSTYLE_BEGIN
 90
        2
 91
        1
300
_HEADER
309
CELLSTYLE_END
300
CELLSTYLE
  1
TABLEFORMAT_BEGIN
 90
        5
170
     1
 91
        0
 92
        0
 62
   257
 93
        1
300
CONTENTFORMAT
  1
CONTENTFORMAT_BEGIN
 90
        0
 91
        0
 92
      512
 93
        0
300

 40
0.0
140
1.0
 94
        2
 62
     0
340
55
144
0.18
309
CONTENTFORMAT_END
171
     1
301
MARGIN
  1
CELLMARGIN_BEGIN
 40
0.06
 40
0.06
 40
0.06
 40
0.06
 40
0.18
 40
0.18
309
CELLMARGIN_END
 94
        6
 95
        1
302
GRIDFORMAT
  1
GRIDFORMAT_BEGIN
 90
        0
 91
        1
 62
     0
 92
       -2
340
0
 93
        0
 40
0.045
309
GRIDFORMAT_END
 95
        2
302
GRIDFORMAT
  1
GRIDFORMAT_BEGIN
 90
        0
 91
        1
 62
     0
 92
       -2
340
0
 93
        0
 40
0.045
309
GRIDFORMAT_END
 95
        4
302
GRIDFORMAT
  1
GRIDFORMAT_BEGIN
 90
        0
 91
        1
 62
     0
 92
       -2
340
0
 93
        0
 40
0.045
309
GRIDFORMAT_END
 95
        8
302
GRIDFORMAT
  1
GRIDFORMAT_BEGIN
 90
        0
 91
        1
 62
     0
 92
       -2
340
0
 93
        0
 40
0.045
309
GRIDFORMAT_END
 95
       16
302
GRIDFORMAT
  1
GRIDFORMAT_BEGIN
 90
        0
 91
        1
 62
     0
 92
       -2
340
0
 93
        0
 40
0.045
309
GRIDFORMAT_END
 95
       32
302
GRIDFORMAT
  1
GRIDFORMAT_BEGIN
 90
        0
 91
        1
 62
     0
 92
       -2
340
0
 93
        0
 40
0.045
309
GRIDFORMAT_END
309
TABLEFORMAT_END
  1
CELLSTYLE_BEGIN
 90
        3
 91
        2
300
_DATA
309
CELLSTYLE_END
  0
ENDSEC
  0
SECTION
  2
ACDSDATA
 70
     2
 71
     8
  0
ACDSSCHEMA
 90
        0
  1
AcDb_Thumbnail_Schema
  2
AcDbDs::ID
280
    10
 91
        8
  2
Thumbnail_Data
280
    15
 91
        0
101
ACDSRECORD
 95
        0
 90
        1
  2
AcDbDs::TreatedAsObjectData
280
     1
291
     1
101
ACDSRECORD
 95
        0
 90
        2
  2
AcDbDs::Legacy
280
     1
291
     1
101
ACDSRECORD
  1
AcDbDs::ID
 90
        3
  2
AcDs:Indexable
280
     1
291
     1
101
ACDSRECORD
  1
AcDbDs::ID
 90
        4
  2
AcDbDs::HandleAttribute
280
     7
282
     1
  0
ACDSSCHEMA
 90
        1
  1
AcDbDs::TreatedAsObjectDataSchema
  2
AcDbDs::TreatedAsObjectData
280
     1
 91
        0
  0
ACDSSCHEMA
 90
        2
  1
AcDbDs::LegacySchema
  2
AcDbDs::Legacy
280
     1
 91
        0
  0
ACDSSCHEMA
 90
        3
  1
AcDbDs::IndexedPropertySchema
  2
AcDs:Indexable
280
     1
 91
        0
  0
ACDSSCHEMA
 90
        4
  1
AcDbDs::HandleAttributeSchema
  2
AcDbDs::HandleAttribute
280
     7
 91
        1
284
     1
  0
ACDSRECORD
 90
        0
  2
AcDbDs::ID
280
    10
320
72
  2
Thumbnail_Data
280
    15
 94
     1412
310
89504E470D0A1A0A0000000D49484452000001000000006C0803000000B2ED9CC100000300504C5445212830FFFFFF2128300000000000000000000000000000000000000000000000000000330000660000990000CC0000FF0033000033330033660033990033CC0033FF0066000066330066660066990066CC0066FF0099
310
000099330099660099990099CC0099FF00CC0000CC3300CC6600CC9900CCCC00CCFF00FF0000FF3300FF6600FF9900FFCC00FFFF3300003300333300663300993300CC3300FF3333003333333333663333993333CC3333FF3366003366333366663366993366CC3366FF3399003399333399663399993399CC3399FF33CC00
310
33CC3333CC6633CC9933CCCC33CCFF33FF0033FF3333FF6633FF9933FFCC33FFFF6600006600336600666600996600CC6600FF6633006633336633666633996633CC6633FF6666006666336666666666996666CC6666FF6699006699336699666699996699CC6699FF66CC0066CC3366CC6666CC9966CCCC66CCFF66FF0066
310
FF3366FF6666FF9966FFCC66FFFF9900009900339900669900999900CC9900FF9933009933339933669933999933CC9933FF9966009966339966669966999966CC9966FF9999009999339999669999999999CC9999FF99CC0099CC3399CC6699CC9999CCCC99CCFF99FF0099FF3399FF6699FF9999FFCC99FFFFCC0000CC00
310
33CC0066CC0099CC00CCCC00FFCC3300CC3333CC3366CC3399CC33CCCC33FFCC6600CC6633CC6666CC6699CC66CCCC66FFCC9900CC9933CC9966CC9999CC99CCCC99FFCCCC00CCCC33CCCC66CCCC99CCCCCCCCCCFFCCFF00CCFF33CCFF66CCFF99CCFFCCCCFFFFFF0000FF0033FF0066FF0099FF00CCFF00FFFF3300FF3333
310
FF3366FF3399FF33CCFF33FFFF6600FF6633FF6666FF6699FF66CCFF66FFFF9900FF9933FF9966FF9999FF99CCFF99FFFFCC00FFCC33FFCC66FFCC99FFCCCCFFCCFFFFFF00FFFF33FFFF66FFFF99FFFFCCFFFFFF0000000D0D0D1A1A1A2828283535354343435050505D5D5D6B6B6B787878868686939393A1A1A1AEAEAEBB
310
BBBBC9C9C9D6D6D6E4E4E4F1F1F1FFFFFF0000000000000000000000000000000000000000000000000000000000002E4550F1000002314944415478DAED9CDB9284200C44F3FFFFDBEFBB5533A25C1D1DA62A91D3FBE00571A54D9A1064CC00F815F4FF77B5A057F2496D6FCD7F6146C1E58B7C347D225A77F5DEFE9739BF
310
77CB67CF0A2C2BC88E8EAD2DEFE499004BAEACE4B3DB6B4C2753C15EAC54A52C90AA3BAD4540E34E10E05D03F6FD967E7534C0BA1AA0401AF0A0FF0201DF74832D531E95D9A82C940B540A5689A0FABBE58963881CAB178080850998A6015644C8C1BAC189C3A060DD60FDE26FE87E7649300BD07173D9EBF3DD46EC2CFF16
310
B03C017A3DBB36FF6DB44C5F10A08D05B72258056F6DC7BFA901E65F038EE1EBED18D88682174103B66CCE4D2978FB52270B0C01108006F84F887C21D6E71324FE2D60100EEB83FECF5AB320FB81730D50EEC5D747C52A12CB561E404058023E8B8F13010A4940DFEF2F2402226B401DCDAB98FB2F5A966C429DDA81F30187
310
8DAA5E4C591DF56B07CE0740C08A043404F044034C6DF91C84D5DEF3E2BF8645C0E5E4CDA882FB4C506FC8A25915E4DBF5010000000000000000001646672AC3AAF4A60DCF074C806D04582B91ADEC7CF5694877B1100440001A00C0CAFDE9CA9E30FC52120220000D000B8DAC1626C016FF28000DC004021230C76AB74162
310
4402A63CF3962608A801330908A981530988A881333520A6054C7AF4B031C01CE31DFD7EC41A04645FCC43C07A1A705C6DF49461CDA52B226B407BCD47F12A6B0B49CB07F77995B881506BD58F4EC2A5EC1743F20D0440C0033440A71AA08768000000000000000000E01B7FDDC233C942F20CCE0000000049454E44AE4260
310
8260820000000049454E44AE426082
  0
ENDSEC
  0
EOF
